<?xml version="1.0" encoding="utf-8" standalone="no"?>
<!DOCTYPE svg PUBLIC "-//W3C//DTD SVG 1.1//EN"
  "http://www.w3.org/Graphics/SVG/1.1/DTD/svg11.dtd">
<svg xmlns:xlink="http://www.w3.org/1999/xlink" width="585.765416pt" height="291.385494pt" viewBox="0 0 585.765416 291.385494" xmlns="http://www.w3.org/2000/svg" version="1.1">
 <metadata>
  <rdf:RDF xmlns:dc="http://purl.org/dc/elements/1.1/" xmlns:cc="http://creativecommons.org/ns#" xmlns:rdf="http://www.w3.org/1999/02/22-rdf-syntax-ns#">
   <cc:Work>
    <dc:type rdf:resource="http://purl.org/dc/dcmitype/StillImage"/>
    <dc:date>2026-10-05T16:21:07.242412</dc:date>
    <dc:format>image/svg+xml</dc:format>
    <dc:creator>
     <cc:Agent>
      <dc:title>Matplotlib v3.11.2, https://matplotlib.org/</dc:title>
     </cc:Agent>
    </dc:creator>
   </cc:Work>
  </rdf:RDF>
 </metadata>
 <defs>
  <style type="text/css">*{stroke-linejoin: round; stroke-linecap: butt}</style>
 </defs>
 <g id="figure_1">
  <g id="patch_1">
   <path d="M 0 291.385494
L 585.765416 291.385494
L 585.765416 0
L 0 0
z
" style="fill: #ffffff"/>
  </g>
  <g id="axes_1">
   <g id="patch_2">
    <path d="M 42.957813 237.89952
L 245.373254 237.89952
L 245.373254 38.508042
L 42.957813 38.508042
z
" style="fill: #ffffff"/>
   </g>
   <g id="matplotlib.axis_1">
    <g id="xtick_1">
     <g id="line2d_1"/>
     <g id="text_1">
      <!-- RGB -->
      <g style="fill: #666c69" transform="translate(67.855016 247.629598) scale(0.082 -0.082)">
       <defs>
        <path id="DejaVuSans-35" d="M 2841 2188
Q 3044 2119 3236 1894
Q 3428 1669 3622 1275
L 4263 0
L 3584 0
L 2988 1197
Q 2756 1666 2539 1819
Q 2322 1972 1947 1972
L 1259 1972
L 1259 0
L 628 0
L 628 4666
L 2053 4666
Q 2853 4666 3247 4331
Q 3641 3997 3641 3322
Q 3641 2881 3436 2590
Q 3231 2300 2841 2188
z
M 1259 4147
L 1259 2491
L 2053 2491
Q 2509 2491 2742 2702
Q 2975 2913 2975 3322
Q 2975 3731 2742 3939
Q 2509 4147 2053 4147
L 1259 4147
z
" transform="scale(0.015625)"/>
        <path id="DejaVuSans-2a" d="M 3809 666
L 3809 1919
L 2778 1919
L 2778 2438
L 4434 2438
L 4434 434
Q 4069 175 3628 42
Q 3188 -91 2688 -91
Q 1594 -91 976 548
Q 359 1188 359 2328
Q 359 3472 976 4111
Q 1594 4750 2688 4750
Q 3144 4750 3555 4637
Q 3966 4525 4313 4306
L 4313 3634
Q 3963 3931 3569 4081
Q 3175 4231 2741 4231
Q 1884 4231 1454 3753
Q 1025 3275 1025 2328
Q 1025 1384 1454 906
Q 1884 428 2741 428
Q 3075 428 3337 486
Q 3600 544 3809 666
z
" transform="scale(0.015625)"/>
        <path id="DejaVuSans-25" d="M 1259 2228
L 1259 519
L 2272 519
Q 2781 519 3026 730
Q 3272 941 3272 1375
Q 3272 1813 3026 2020
Q 2781 2228 2272 2228
L 1259 2228
z
M 1259 4147
L 1259 2741
L 2194 2741
Q 2656 2741 2882 2914
Q 3109 3088 3109 3444
Q 3109 3797 2882 3972
Q 2656 4147 2194 4147
L 1259 4147
z
M 628 4666
L 2241 4666
Q 2963 4666 3353 4366
Q 3744 4066 3744 3513
Q 3744 3084 3544 2831
Q 3344 2578 2956 2516
Q 3422 2416 3680 2098
Q 3938 1781 3938 1306
Q 3938 681 3513 340
Q 3088 0 2303 0
L 628 0
L 628 4666
z
" transform="scale(0.015625)"/>
       </defs>
       <use xlink:href="#DejaVuSans-35"/>
       <use xlink:href="#DejaVuSans-2a" transform="translate(69.484375 0)"/>
       <use xlink:href="#DejaVuSans-25" transform="translate(146.96875 0)"/>
      </g>
     </g>
    </g>
    <g id="xtick_2">
     <g id="line2d_2"/>
     <g id="text_2">
      <!-- RGB + NIR -->
      <g style="fill: #666c69" transform="translate(175.172992 247.629598) scale(0.082 -0.082)">
       <defs>
        <path id="DejaVuSans-3" transform="scale(0.015625)"/>
        <path id="DejaVuSans-e" d="M 2944 4013
L 2944 2272
L 4684 2272
L 4684 1741
L 2944 1741
L 2944 0
L 2419 0
L 2419 1741
L 678 1741
L 678 2272
L 2419 2272
L 2419 4013
L 2944 4013
z
" transform="scale(0.015625)"/>
        <path id="DejaVuSans-31" d="M 628 4666
L 1478 4666
L 3547 763
L 3547 4666
L 4159 4666
L 4159 0
L 3309 0
L 1241 3903
L 1241 0
L 628 0
L 628 4666
z
" transform="scale(0.015625)"/>
        <path id="DejaVuSans-2c" d="M 628 4666
L 1259 4666
L 1259 0
L 628 0
L 628 4666
z
" transform="scale(0.015625)"/>
       </defs>
       <use xlink:href="#DejaVuSans-35"/>
       <use xlink:href="#DejaVuSans-2a" transform="translate(69.484375 0)"/>
       <use xlink:href="#DejaVuSans-25" transform="translate(146.96875 0)"/>
       <use xlink:href="#DejaVuSans-3" transform="translate(215.578125 0)"/>
       <use xlink:href="#DejaVuSans-e" transform="translate(247.359375 0)"/>
       <use xlink:href="#DejaVuSans-3" transform="translate(331.15625 0)"/>
       <use xlink:href="#DejaVuSans-31" transform="translate(362.9375 0)"/>
       <use xlink:href="#DejaVuSans-2c" transform="translate(437.75 0)"/>
       <use xlink:href="#DejaVuSans-35" transform="translate(467.25 0)"/>
      </g>
     </g>
    </g>
   </g>
   <g id="matplotlib.axis_2">
    <g id="ytick_1">
     <g id="line2d_3">
      <path d="M 42.957813 202.517527
L 245.373254 202.517527
" clip-path="url(#p935c71073e)" style="fill: none; stroke: #d8dcd9; stroke-width: 0.55; stroke-linecap: square"/>
     </g>
     <g id="line2d_4"/>
     <g id="text_3">
      <!-- 0.28 -->
      <g style="fill: #666c69" transform="translate(21.2 205.632566) scale(0.082 -0.082)">
       <defs>
        <path id="DejaVuSans-13" d="M 2034 4250
Q 1547 4250 1301 3770
Q 1056 3291 1056 2328
Q 1056 1369 1301 889
Q 1547 409 2034 409
Q 2525 409 2770 889
Q 3016 1369 3016 2328
Q 3016 3291 2770 3770
Q 2525 4250 2034 4250
z
M 2034 4750
Q 2819 4750 3233 4129
Q 3647 3509 3647 2328
Q 3647 1150 3233 529
Q 2819 -91 2034 -91
Q 1250 -91 836 529
Q 422 1150 422 2328
Q 422 3509 836 4129
Q 1250 4750 2034 4750
z
" transform="scale(0.015625)"/>
        <path id="DejaVuSans-11" d="M 684 794
L 1344 794
L 1344 0
L 684 0
L 684 794
z
" transform="scale(0.015625)"/>
        <path id="DejaVuSans-15" d="M 1228 531
L 3431 531
L 3431 0
L 469 0
L 469 531
Q 828 903 1448 1529
Q 2069 2156 2228 2338
Q 2531 2678 2651 2914
Q 2772 3150 2772 3378
Q 2772 3750 2511 3984
Q 2250 4219 1831 4219
Q 1534 4219 1204 4116
Q 875 4013 500 3803
L 500 4441
Q 881 4594 1212 4672
Q 1544 4750 1819 4750
Q 2544 4750 2975 4387
Q 3406 4025 3406 3419
Q 3406 3131 3298 2873
Q 3191 2616 2906 2266
Q 2828 2175 2409 1742
Q 1991 1309 1228 531
z
" transform="scale(0.015625)"/>
        <path id="DejaVuSans-1b" d="M 2034 2216
Q 1584 2216 1326 1975
Q 1069 1734 1069 1313
Q 1069 891 1326 650
Q 1584 409 2034 409
Q 2484 409 2743 651
Q 3003 894 3003 1313
Q 3003 1734 2745 1975
Q 2488 2216 2034 2216
z
M 1403 2484
Q 997 2584 770 2862
Q 544 3141 544 3541
Q 544 4100 942 4425
Q 1341 4750 2034 4750
Q 2731 4750 3128 4425
Q 3525 4100 3525 3541
Q 3525 3141 3298 2862
Q 3072 2584 2669 2484
Q 3125 2378 3379 2068
Q 3634 1759 3634 1313
Q 3634 634 3220 271
Q 2806 -91 2034 -91
Q 1263 -91 848 271
Q 434 634 434 1313
Q 434 1759 690 2068
Q 947 2378 1403 2484
z
M 1172 3481
Q 1172 3119 1398 2916
Q 1625 2713 2034 2713
Q 2441 2713 2670 2916
Q 2900 3119 2900 3481
Q 2900 3844 2670 4047
Q 2441 4250 2034 4250
Q 1625 4250 1398 4047
Q 1172 3844 1172 3481
z
" transform="scale(0.015625)"/>
       </defs>
       <use xlink:href="#DejaVuSans-13"/>
       <use xlink:href="#DejaVuSans-11" transform="translate(63.625 0)"/>
       <use xlink:href="#DejaVuSans-15" transform="translate(95.40625 0)"/>
       <use xlink:href="#DejaVuSans-1b" transform="translate(159.03125 0)"/>
      </g>
     </g>
    </g>
    <g id="ytick_2">
     <g id="line2d_5">
      <path d="M 42.957813 155.241327
L 245.373254 155.241327
" clip-path="url(#p935c71073e)" style="fill: none; stroke: #d8dcd9; stroke-width: 0.55; stroke-linecap: square"/>
     </g>
     <g id="line2d_6"/>
     <g id="text_4">
      <!-- 0.29 -->
      <g style="fill: #666c69" transform="translate(21.2 158.356366) scale(0.082 -0.082)">
       <defs>
        <path id="DejaVuSans-1c" d="M 703 97
L 703 672
Q 941 559 1184 500
Q 1428 441 1663 441
Q 2288 441 2617 861
Q 2947 1281 2994 2138
Q 2813 1869 2534 1725
Q 2256 1581 1919 1581
Q 1219 1581 811 2004
Q 403 2428 403 3163
Q 403 3881 828 4315
Q 1253 4750 1959 4750
Q 2769 4750 3195 4129
Q 3622 3509 3622 2328
Q 3622 1225 3098 567
Q 2575 -91 1691 -91
Q 1453 -91 1209 -44
Q 966 3 703 97
z
M 1959 2075
Q 2384 2075 2632 2365
Q 2881 2656 2881 3163
Q 2881 3666 2632 3958
Q 2384 4250 1959 4250
Q 1534 4250 1286 3958
Q 1038 3666 1038 3163
Q 1038 2656 1286 2365
Q 1534 2075 1959 2075
z
" transform="scale(0.015625)"/>
       </defs>
       <use xlink:href="#DejaVuSans-13"/>
       <use xlink:href="#DejaVuSans-11" transform="translate(63.625 0)"/>
       <use xlink:href="#DejaVuSans-15" transform="translate(95.40625 0)"/>
       <use xlink:href="#DejaVuSans-1c" transform="translate(159.03125 0)"/>
      </g>
     </g>
    </g>
    <g id="ytick_3">
     <g id="line2d_7">
      <path d="M 42.957813 107.965127
L 245.373254 107.965127
" clip-path="url(#p935c71073e)" style="fill: none; stroke: #d8dcd9; stroke-width: 0.55; stroke-linecap: square"/>
     </g>
     <g id="line2d_8"/>
     <g id="text_5">
      <!-- 0.30 -->
      <g style="fill: #666c69" transform="translate(21.2 111.080166) scale(0.082 -0.082)">
       <defs>
        <path id="DejaVuSans-16" d="M 2597 2516
Q 3050 2419 3304 2112
Q 3559 1806 3559 1356
Q 3559 666 3084 287
Q 2609 -91 1734 -91
Q 1441 -91 1130 -33
Q 819 25 488 141
L 488 750
Q 750 597 1062 519
Q 1375 441 1716 441
Q 2309 441 2620 675
Q 2931 909 2931 1356
Q 2931 1769 2642 2001
Q 2353 2234 1838 2234
L 1294 2234
L 1294 2753
L 1863 2753
Q 2328 2753 2575 2939
Q 2822 3125 2822 3475
Q 2822 3834 2567 4026
Q 2313 4219 1838 4219
Q 1578 4219 1281 4162
Q 984 4106 628 3988
L 628 4550
Q 988 4650 1302 4700
Q 1616 4750 1894 4750
Q 2613 4750 3031 4423
Q 3450 4097 3450 3541
Q 3450 3153 3228 2886
Q 3006 2619 2597 2516
z
" transform="scale(0.015625)"/>
       </defs>
       <use xlink:href="#DejaVuSans-13"/>
       <use xlink:href="#DejaVuSans-11" transform="translate(63.625 0)"/>
       <use xlink:href="#DejaVuSans-16" transform="translate(95.40625 0)"/>
       <use xlink:href="#DejaVuSans-13" transform="translate(159.03125 0)"/>
      </g>
     </g>
    </g>
    <g id="ytick_4">
     <g id="line2d_9">
      <path d="M 42.957813 60.688927
L 245.373254 60.688927
" clip-path="url(#p935c71073e)" style="fill: none; stroke: #d8dcd9; stroke-width: 0.55; stroke-linecap: square"/>
     </g>
     <g id="line2d_10"/>
     <g id="text_6">
      <!-- 0.31 -->
      <g style="fill: #666c69" transform="translate(21.2 63.803966) scale(0.082 -0.082)">
       <defs>
        <path id="DejaVuSans-14" d="M 794 531
L 1825 531
L 1825 4091
L 703 3866
L 703 4441
L 1819 4666
L 2450 4666
L 2450 531
L 3481 531
L 3481 0
L 794 0
L 794 531
z
" transform="scale(0.015625)"/>
       </defs>
       <use xlink:href="#DejaVuSans-13"/>
       <use xlink:href="#DejaVuSans-11" transform="translate(63.625 0)"/>
       <use xlink:href="#DejaVuSans-16" transform="translate(95.40625 0)"/>
       <use xlink:href="#DejaVuSans-14" transform="translate(159.03125 0)"/>
      </g>
     </g>
    </g>
    <g id="text_7">
     <!-- mAP@10 -->
     <g transform="translate(14.797656 160.87175) rotate(-90) scale(0.1 -0.1)">
      <defs>
       <path id="DejaVuSans-50" d="M 3328 2828
Q 3544 3216 3844 3400
Q 4144 3584 4550 3584
Q 5097 3584 5394 3201
Q 5691 2819 5691 2113
L 5691 0
L 5113 0
L 5113 2094
Q 5113 2597 4934 2840
Q 4756 3084 4391 3084
Q 3944 3084 3684 2787
Q 3425 2491 3425 1978
L 3425 0
L 2847 0
L 2847 2094
Q 2847 2600 2669 2842
Q 2491 3084 2119 3084
Q 1678 3084 1418 2786
Q 1159 2488 1159 1978
L 1159 0
L 581 0
L 581 3500
L 1159 3500
L 1159 2956
Q 1356 3278 1631 3431
Q 1906 3584 2284 3584
Q 2666 3584 2933 3390
Q 3200 3197 3328 2828
z
" transform="scale(0.015625)"/>
       <path id="DejaVuSans-24" d="M 2188 4044
L 1331 1722
L 3047 1722
L 2188 4044
z
M 1831 4666
L 2547 4666
L 4325 0
L 3669 0
L 3244 1197
L 1141 1197
L 716 0
L 50 0
L 1831 4666
z
" transform="scale(0.015625)"/>
       <path id="DejaVuSans-33" d="M 1259 4147
L 1259 2394
L 2053 2394
Q 2494 2394 2734 2622
Q 2975 2850 2975 3272
Q 2975 3691 2734 3919
Q 2494 4147 2053 4147
L 1259 4147
z
M 628 4666
L 2053 4666
Q 2838 4666 3239 4311
Q 3641 3956 3641 3272
Q 3641 2581 3239 2228
Q 2838 1875 2053 1875
L 1259 1875
L 1259 0
L 628 0
L 628 4666
z
" transform="scale(0.015625)"/>
       <path id="DejaVuSans-23" d="M 2381 1678
Q 2381 1231 2603 976
Q 2825 722 3213 722
Q 3597 722 3817 978
Q 4038 1234 4038 1678
Q 4038 2116 3813 2373
Q 3588 2631 3206 2631
Q 2828 2631 2604 2375
Q 2381 2119 2381 1678
z
M 4084 744
Q 3897 503 3655 389
Q 3413 275 3091 275
Q 2553 275 2217 664
Q 1881 1053 1881 1678
Q 1881 2303 2218 2693
Q 2556 3084 3091 3084
Q 3413 3084 3656 2967
Q 3900 2850 4084 2613
L 4084 3022
L 4531 3022
L 4531 722
Q 4988 791 5245 1139
Q 5503 1488 5503 2041
Q 5503 2375 5404 2669
Q 5306 2963 5106 3213
Q 4781 3622 4314 3839
Q 3847 4056 3297 4056
Q 2913 4056 2559 3954
Q 2206 3853 1906 3653
Q 1416 3334 1139 2817
Q 863 2300 863 1697
Q 863 1200 1042 765
Q 1222 331 1563 0
Q 1891 -325 2322 -495
Q 2753 -666 3244 -666
Q 3647 -666 4036 -530
Q 4425 -394 4750 -141
L 5031 -488
Q 4641 -791 4180 -952
Q 3719 -1113 3244 -1113
Q 2666 -1113 2153 -908
Q 1641 -703 1241 -313
Q 841 78 631 592
Q 422 1106 422 1697
Q 422 2266 634 2781
Q 847 3297 1241 3688
Q 1644 4084 2172 4295
Q 2700 4506 3291 4506
Q 3953 4506 4520 4234
Q 5088 3963 5472 3463
Q 5706 3156 5829 2797
Q 5953 2438 5953 2053
Q 5953 1231 5456 756
Q 4959 281 4084 263
L 4084 744
z
" transform="scale(0.015625)"/>
      </defs>
      <use xlink:href="#DejaVuSans-50"/>
      <use xlink:href="#DejaVuSans-24" transform="translate(97.40625 0)"/>
      <use xlink:href="#DejaVuSans-33" transform="translate(165.8125 0)"/>
      <use xlink:href="#DejaVuSans-23" transform="translate(226.109375 0)"/>
      <use xlink:href="#DejaVuSans-14" transform="translate(326.109375 0)"/>
      <use xlink:href="#DejaVuSans-13" transform="translate(389.734375 0)"/>
     </g>
    </g>
   </g>
   <g id="line2d_11">
    <path d="M 70.067023 198.398823
L 190.552406 47.571291
" clip-path="url(#p935c71073e)" style="fill: none; stroke: #d8dcd9; stroke-linecap: square"/>
   </g>
   <g id="line2d_12">
    <path d="M 76.693719 228.836271
L 197.179102 119.088916
" clip-path="url(#p935c71073e)" style="fill: none; stroke: #d8dcd9; stroke-linecap: square"/>
   </g>
   <g id="line2d_13">
    <path d="M 83.320415 211.652903
L 203.805798 122.714415
" clip-path="url(#p935c71073e)" style="fill: none; stroke: #d8dcd9; stroke-linecap: square"/>
   </g>
   <g id="patch_3">
    <path d="M 42.957813 237.89952
L 42.957813 38.508043
" style="fill: none; stroke: #d8dcd9; stroke-width: 0.8; stroke-linejoin: miter; stroke-linecap: square"/>
   </g>
   <g id="patch_4">
    <path d="M 42.957813 237.89952
L 245.373254 237.89952
" style="fill: none; stroke: #d8dcd9; stroke-width: 0.8; stroke-linejoin: miter; stroke-linecap: square"/>
   </g>
   <g id="PathCollection_1">
    <defs>
     <path id="m83fb942389" d="M 0 3.24037
C 0.859356 3.24037 1.683631 2.898944 2.291288 2.291288
C 2.898944 1.683631 3.24037 0.859356 3.24037 0
C 3.24037 -0.859356 2.898944 -1.683631 2.291288 -2.291288
C 1.683631 -2.898944 0.859356 -3.24037 0 -3.24037
C -0.859356 -3.24037 -1.683631 -2.898944 -2.291288 -2.291288
C -2.898944 -1.683631 -3.24037 -0.859356 -3.24037 0
C -3.24037 0.859356 -2.898944 1.683631 -2.291288 2.291288
C -1.683631 2.898944 -0.859356 3.24037 0 3.24037
z
" style="stroke: #ffffff; stroke-width: 0.65"/>
    </defs>
    <g clip-path="url(#p935c71073e)">
     <use xlink:href="#m83fb942389" x="70.067023" y="198.398823" style="fill: #8d9390; stroke: #ffffff; stroke-width: 0.65"/>
    </g>
   </g>
   <g id="PathCollection_2">
    <defs>
     <path id="m836678a409" d="M 0 3.464102
C 0.91869 3.464102 1.799877 3.099102 2.44949 2.44949
C 3.099102 1.799877 3.464102 0.91869 3.464102 0
C 3.464102 -0.91869 3.099102 -1.799877 2.44949 -2.44949
C 1.799877 -3.099102 0.91869 -3.464102 0 -3.464102
C -0.91869 -3.464102 -1.799877 -3.099102 -2.44949 -2.44949
C -3.099102 -1.799877 -3.464102 -0.91869 -3.464102 0
C -3.464102 0.91869 -3.099102 1.799877 -2.44949 2.44949
C -1.799877 3.099102 -0.91869 3.464102 0 3.464102
z
" style="stroke: #ffffff; stroke-width: 0.65"/>
    </defs>
    <g clip-path="url(#p935c71073e)">
     <use xlink:href="#m836678a409" x="190.552406" y="47.571291" style="fill: #1f6f5f; stroke: #ffffff; stroke-width: 0.65"/>
    </g>
   </g>
   <g id="PathCollection_3">
    <defs>
     <path id="m5e26bcc45f" d="M -3.24037 3.24037
L 3.24037 3.24037
L 3.24037 -3.24037
L -3.24037 -3.24037
z
" style="stroke: #ffffff; stroke-width: 0.65"/>
    </defs>
    <g clip-path="url(#p935c71073e)">
     <use xlink:href="#m5e26bcc45f" x="76.693719" y="228.836271" style="fill: #8d9390; stroke: #ffffff; stroke-width: 0.65"/>
    </g>
   </g>
   <g id="PathCollection_4">
    <defs>
     <path id="m344a1830e0" d="M -3.464102 3.464102
L 3.464102 3.464102
L 3.464102 -3.464102
L -3.464102 -3.464102
z
" style="stroke: #ffffff; stroke-width: 0.65"/>
    </defs>
    <g clip-path="url(#p935c71073e)">
     <use xlink:href="#m344a1830e0" x="197.179102" y="119.088916" style="fill: #1f6f5f; stroke: #ffffff; stroke-width: 0.65"/>
    </g>
   </g>
   <g id="PathCollection_5">
    <defs>
     <path id="m3f42525e65" d="M 0 -3.24037
L -3.24037 3.24037
L 3.24037 3.24037
z
" style="stroke: #ffffff; stroke-width: 0.65"/>
    </defs>
    <g clip-path="url(#p935c71073e)">
     <use xlink:href="#m3f42525e65" x="83.320415" y="211.652903" style="fill: #8d9390; stroke: #ffffff; stroke-width: 0.65"/>
    </g>
   </g>
   <g id="PathCollection_6">
    <defs>
     <path id="m36612c6476" d="M 0 -3.464102
L -3.464102 3.464102
L 3.464102 3.464102
z
" style="stroke: #ffffff; stroke-width: 0.65"/>
    </defs>
    <g clip-path="url(#p935c71073e)">
     <use xlink:href="#m36612c6476" x="203.805798" y="122.714415" style="fill: #1f6f5f; stroke: #ffffff; stroke-width: 0.65"/>
    </g>
   </g>
   <g id="text_8">
    <!-- Higher is better -->
    <g style="fill: #666c69" transform="translate(42.957813 30.508042) scale(0.083 -0.083)">
     <defs>
      <path id="DejaVuSans-2b" d="M 628 4666
L 1259 4666
L 1259 2753
L 3553 2753
L 3553 4666
L 4184 4666
L 4184 0
L 3553 0
L 3553 2222
L 1259 2222
L 1259 0
L 628 0
L 628 4666
z
" transform="scale(0.015625)"/>
      <path id="DejaVuSans-4c" d="M 603 3500
L 1178 3500
L 1178 0
L 603 0
L 603 3500
z
M 603 4863
L 1178 4863
L 1178 4134
L 603 4134
L 603 4863
z
" transform="scale(0.015625)"/>
      <path id="DejaVuSans-4a" d="M 2906 1791
Q 2906 2416 2648 2759
Q 2391 3103 1925 3103
Q 1463 3103 1205 2759
Q 947 2416 947 1791
Q 947 1169 1205 825
Q 1463 481 1925 481
Q 2391 481 2648 825
Q 2906 1169 2906 1791
z
M 3481 434
Q 3481 -459 3084 -895
Q 2688 -1331 1869 -1331
Q 1566 -1331 1297 -1286
Q 1028 -1241 775 -1147
L 775 -588
Q 1028 -725 1275 -790
Q 1522 -856 1778 -856
Q 2344 -856 2625 -561
Q 2906 -266 2906 331
L 2906 616
Q 2728 306 2450 153
Q 2172 0 1784 0
Q 1141 0 747 490
Q 353 981 353 1791
Q 353 2603 747 3093
Q 1141 3584 1784 3584
Q 2172 3584 2450 3431
Q 2728 3278 2906 2969
L 2906 3500
L 3481 3500
L 3481 434
z
" transform="scale(0.015625)"/>
      <path id="DejaVuSans-4b" d="M 3513 2113
L 3513 0
L 2938 0
L 2938 2094
Q 2938 2591 2744 2837
Q 2550 3084 2163 3084
Q 1697 3084 1428 2787
Q 1159 2491 1159 1978
L 1159 0
L 581 0
L 581 4863
L 1159 4863
L 1159 2956
Q 1366 3272 1645 3428
Q 1925 3584 2291 3584
Q 2894 3584 3203 3211
Q 3513 2838 3513 2113
z
" transform="scale(0.015625)"/>
      <path id="DejaVuSans-48" d="M 3597 1894
L 3597 1613
L 953 1613
Q 991 1019 1311 708
Q 1631 397 2203 397
Q 2534 397 2845 478
Q 3156 559 3463 722
L 3463 178
Q 3153 47 2828 -22
Q 2503 -91 2169 -91
Q 1331 -91 842 396
Q 353 884 353 1716
Q 353 2575 817 3079
Q 1281 3584 2069 3584
Q 2775 3584 3186 3129
Q 3597 2675 3597 1894
z
M 3022 2063
Q 3016 2534 2758 2815
Q 2500 3097 2075 3097
Q 1594 3097 1305 2825
Q 1016 2553 972 2059
L 3022 2063
z
" transform="scale(0.015625)"/>
      <path id="DejaVuSans-55" d="M 2631 2963
Q 2534 3019 2420 3045
Q 2306 3072 2169 3072
Q 1681 3072 1420 2755
Q 1159 2438 1159 1844
L 1159 0
L 581 0
L 581 3500
L 1159 3500
L 1159 2956
Q 1341 3275 1631 3429
Q 1922 3584 2338 3584
Q 2397 3584 2469 3576
Q 2541 3569 2628 3553
L 2631 2963
z
" transform="scale(0.015625)"/>
      <path id="DejaVuSans-56" d="M 2834 3397
L 2834 2853
Q 2591 2978 2328 3040
Q 2066 3103 1784 3103
Q 1356 3103 1142 2972
Q 928 2841 928 2578
Q 928 2378 1081 2264
Q 1234 2150 1697 2047
L 1894 2003
Q 2506 1872 2764 1633
Q 3022 1394 3022 966
Q 3022 478 2636 193
Q 2250 -91 1575 -91
Q 1294 -91 989 -36
Q 684 19 347 128
L 347 722
Q 666 556 975 473
Q 1284 391 1588 391
Q 1994 391 2212 530
Q 2431 669 2431 922
Q 2431 1156 2273 1281
Q 2116 1406 1581 1522
L 1381 1569
Q 847 1681 609 1914
Q 372 2147 372 2553
Q 372 3047 722 3315
Q 1072 3584 1716 3584
Q 2034 3584 2315 3537
Q 2597 3491 2834 3397
z
" transform="scale(0.015625)"/>
      <path id="DejaVuSans-45" d="M 3116 1747
Q 3116 2381 2855 2742
Q 2594 3103 2138 3103
Q 1681 3103 1420 2742
Q 1159 2381 1159 1747
Q 1159 1113 1420 752
Q 1681 391 2138 391
Q 2594 391 2855 752
Q 3116 1113 3116 1747
z
M 1159 2969
Q 1341 3281 1617 3432
Q 1894 3584 2278 3584
Q 2916 3584 3314 3078
Q 3713 2572 3713 1747
Q 3713 922 3314 415
Q 2916 -91 2278 -91
Q 1894 -91 1617 61
Q 1341 213 1159 525
L 1159 0
L 581 0
L 581 4863
L 1159 4863
L 1159 2969
z
" transform="scale(0.015625)"/>
      <path id="DejaVuSans-57" d="M 1172 4494
L 1172 3500
L 2356 3500
L 2356 3053
L 1172 3053
L 1172 1153
Q 1172 725 1289 603
Q 1406 481 1766 481
L 2356 481
L 2356 0
L 1766 0
Q 1100 0 847 248
Q 594 497 594 1153
L 594 3053
L 172 3053
L 172 3500
L 594 3500
L 594 4494
L 1172 4494
z
" transform="scale(0.015625)"/>
     </defs>
     <use xlink:href="#DejaVuSans-2b"/>
     <use xlink:href="#DejaVuSans-4c" transform="translate(75.203125 0)"/>
     <use xlink:href="#DejaVuSans-4a" transform="translate(102.984375 0)"/>
     <use xlink:href="#DejaVuSans-4b" transform="translate(166.46875 0)"/>
     <use xlink:href="#DejaVuSans-48" transform="translate(229.84375 0)"/>
     <use xlink:href="#DejaVuSans-55" transform="translate(291.375 0)"/>
     <use xlink:href="#DejaVuSans-3" transform="translate(332.484375 0)"/>
     <use xlink:href="#DejaVuSans-4c" transform="translate(364.265625 0)"/>
     <use xlink:href="#DejaVuSans-56" transform="translate(392.046875 0)"/>
     <use xlink:href="#DejaVuSans-3" transform="translate(444.140625 0)"/>
     <use xlink:href="#DejaVuSans-45" transform="translate(475.921875 0)"/>
     <use xlink:href="#DejaVuSans-48" transform="translate(539.40625 0)"/>
     <use xlink:href="#DejaVuSans-57" transform="translate(600.9375 0)"/>
     <use xlink:href="#DejaVuSans-57" transform="translate(640.140625 0)"/>
     <use xlink:href="#DejaVuSans-48" transform="translate(679.34375 0)"/>
     <use xlink:href="#DejaVuSans-55" transform="translate(740.875 0)"/>
    </g>
   </g>
  </g>
  <g id="axes_2">
   <g id="patch_5">
    <path d="M 302.784078 237.89952
L 505.19952 237.89952
L 505.19952 38.508042
L 302.784078 38.508042
z
" style="fill: #ffffff"/>
   </g>
   <g id="matplotlib.axis_3">
    <g id="xtick_3">
     <g id="line2d_14"/>
     <g id="text_9">
      <!-- RGB -->
      <g style="fill: #666c69" transform="translate(327.681282 247.629598) scale(0.082 -0.082)">
       <use xlink:href="#DejaVuSans-35"/>
       <use xlink:href="#DejaVuSans-2a" transform="translate(69.484375 0)"/>
       <use xlink:href="#DejaVuSans-25" transform="translate(146.96875 0)"/>
      </g>
     </g>
    </g>
    <g id="xtick_4">
     <g id="line2d_15"/>
     <g id="text_10">
      <!-- RGB + NIR -->
      <g style="fill: #666c69" transform="translate(434.999258 247.629598) scale(0.082 -0.082)">
       <use xlink:href="#DejaVuSans-35"/>
       <use xlink:href="#DejaVuSans-2a" transform="translate(69.484375 0)"/>
       <use xlink:href="#DejaVuSans-25" transform="translate(146.96875 0)"/>
       <use xlink:href="#DejaVuSans-3" transform="translate(215.578125 0)"/>
       <use xlink:href="#DejaVuSans-e" transform="translate(247.359375 0)"/>
       <use xlink:href="#DejaVuSans-3" transform="translate(331.15625 0)"/>
       <use xlink:href="#DejaVuSans-31" transform="translate(362.9375 0)"/>
       <use xlink:href="#DejaVuSans-2c" transform="translate(437.75 0)"/>
       <use xlink:href="#DejaVuSans-35" transform="translate(467.25 0)"/>
      </g>
     </g>
    </g>
   </g>
   <g id="matplotlib.axis_4">
    <g id="ytick_5">
     <g id="line2d_16">
      <path d="M 302.784078 215.523697
L 505.19952 215.523697
" clip-path="url(#p3fcd752b65)" style="fill: none; stroke: #d8dcd9; stroke-width: 0.55; stroke-linecap: square"/>
     </g>
     <g id="line2d_17"/>
     <g id="text_11">
      <!-- 0.00068 -->
      <g style="fill: #666c69" transform="translate(265.374516 218.638736) scale(0.082 -0.082)">
       <defs>
        <path id="DejaVuSans-19" d="M 2113 2584
Q 1688 2584 1439 2293
Q 1191 2003 1191 1497
Q 1191 994 1439 701
Q 1688 409 2113 409
Q 2538 409 2786 701
Q 3034 994 3034 1497
Q 3034 2003 2786 2293
Q 2538 2584 2113 2584
z
M 3366 4563
L 3366 3988
Q 3128 4100 2886 4159
Q 2644 4219 2406 4219
Q 1781 4219 1451 3797
Q 1122 3375 1075 2522
Q 1259 2794 1537 2939
Q 1816 3084 2150 3084
Q 2853 3084 3261 2657
Q 3669 2231 3669 1497
Q 3669 778 3244 343
Q 2819 -91 2113 -91
Q 1303 -91 875 529
Q 447 1150 447 2328
Q 447 3434 972 4092
Q 1497 4750 2381 4750
Q 2619 4750 2861 4703
Q 3103 4656 3366 4563
z
" transform="scale(0.015625)"/>
       </defs>
       <use xlink:href="#DejaVuSans-13"/>
       <use xlink:href="#DejaVuSans-11" transform="translate(63.625 0)"/>
       <use xlink:href="#DejaVuSans-13" transform="translate(95.40625 0)"/>
       <use xlink:href="#DejaVuSans-13" transform="translate(159.03125 0)"/>
       <use xlink:href="#DejaVuSans-13" transform="translate(222.65625 0)"/>
       <use xlink:href="#DejaVuSans-19" transform="translate(286.28125 0)"/>
       <use xlink:href="#DejaVuSans-1b" transform="translate(349.90625 0)"/>
      </g>
     </g>
    </g>
    <g id="ytick_6">
     <g id="line2d_18">
      <path d="M 302.784078 164.723632
L 505.19952 164.723632
" clip-path="url(#p3fcd752b65)" style="fill: none; stroke: #d8dcd9; stroke-width: 0.55; stroke-linecap: square"/>
     </g>
     <g id="line2d_19"/>
     <g id="text_12">
      <!-- 0.00072 -->
      <g style="fill: #666c69" transform="translate(265.374516 167.838671) scale(0.082 -0.082)">
       <defs>
        <path id="DejaVuSans-1a" d="M 525 4666
L 3525 4666
L 3525 4397
L 1831 0
L 1172 0
L 2766 4134
L 525 4134
L 525 4666
z
" transform="scale(0.015625)"/>
       </defs>
       <use xlink:href="#DejaVuSans-13"/>
       <use xlink:href="#DejaVuSans-11" transform="translate(63.625 0)"/>
       <use xlink:href="#DejaVuSans-13" transform="translate(95.40625 0)"/>
       <use xlink:href="#DejaVuSans-13" transform="translate(159.03125 0)"/>
       <use xlink:href="#DejaVuSans-13" transform="translate(222.65625 0)"/>
       <use xlink:href="#DejaVuSans-1a" transform="translate(286.28125 0)"/>
       <use xlink:href="#DejaVuSans-15" transform="translate(349.90625 0)"/>
      </g>
     </g>
    </g>
    <g id="ytick_7">
     <g id="line2d_20">
      <path d="M 302.784078 113.923567
L 505.19952 113.923567
" clip-path="url(#p3fcd752b65)" style="fill: none; stroke: #d8dcd9; stroke-width: 0.55; stroke-linecap: square"/>
     </g>
     <g id="line2d_21"/>
     <g id="text_13">
      <!-- 0.00076 -->
      <g style="fill: #666c69" transform="translate(265.374516 117.038606) scale(0.082 -0.082)">
       <use xlink:href="#DejaVuSans-13"/>
       <use xlink:href="#DejaVuSans-11" transform="translate(63.625 0)"/>
       <use xlink:href="#DejaVuSans-13" transform="translate(95.40625 0)"/>
       <use xlink:href="#DejaVuSans-13" transform="translate(159.03125 0)"/>
       <use xlink:href="#DejaVuSans-13" transform="translate(222.65625 0)"/>
       <use xlink:href="#DejaVuSans-1a" transform="translate(286.28125 0)"/>
       <use xlink:href="#DejaVuSans-19" transform="translate(349.90625 0)"/>
      </g>
     </g>
    </g>
    <g id="ytick_8">
     <g id="line2d_22">
      <path d="M 302.784078 63.123501
L 505.19952 63.123501
" clip-path="url(#p3fcd752b65)" style="fill: none; stroke: #d8dcd9; stroke-width: 0.55; stroke-linecap: square"/>
     </g>
     <g id="line2d_23"/>
     <g id="text_14">
      <!-- 0.00080 -->
      <g style="fill: #666c69" transform="translate(265.374516 66.23854) scale(0.082 -0.082)">
       <use xlink:href="#DejaVuSans-13"/>
       <use xlink:href="#DejaVuSans-11" transform="translate(63.625 0)"/>
       <use xlink:href="#DejaVuSans-13" transform="translate(95.40625 0)"/>
       <use xlink:href="#DejaVuSans-13" transform="translate(159.03125 0)"/>
       <use xlink:href="#DejaVuSans-13" transform="translate(222.65625 0)"/>
       <use xlink:href="#DejaVuSans-1b" transform="translate(286.28125 0)"/>
       <use xlink:href="#DejaVuSans-13" transform="translate(349.90625 0)"/>
      </g>
     </g>
    </g>
    <g id="text_15">
     <!-- Recall@10 -->
     <g transform="translate(258.972172 164.48425) rotate(-90) scale(0.1 -0.1)">
      <defs>
       <path id="DejaVuSans-46" d="M 3122 3366
L 3122 2828
Q 2878 2963 2633 3030
Q 2388 3097 2138 3097
Q 1578 3097 1268 2742
Q 959 2388 959 1747
Q 959 1106 1268 751
Q 1578 397 2138 397
Q 2388 397 2633 464
Q 2878 531 3122 666
L 3122 134
Q 2881 22 2623 -34
Q 2366 -91 2075 -91
Q 1284 -91 818 406
Q 353 903 353 1747
Q 353 2603 823 3093
Q 1294 3584 2113 3584
Q 2378 3584 2631 3529
Q 2884 3475 3122 3366
z
" transform="scale(0.015625)"/>
       <path id="DejaVuSans-44" d="M 2194 1759
Q 1497 1759 1228 1600
Q 959 1441 959 1056
Q 959 750 1161 570
Q 1363 391 1709 391
Q 2188 391 2477 730
Q 2766 1069 2766 1631
L 2766 1759
L 2194 1759
z
M 3341 1997
L 3341 0
L 2766 0
L 2766 531
Q 2569 213 2275 61
Q 1981 -91 1556 -91
Q 1019 -91 701 211
Q 384 513 384 1019
Q 384 1609 779 1909
Q 1175 2209 1959 2209
L 2766 2209
L 2766 2266
Q 2766 2663 2505 2880
Q 2244 3097 1772 3097
Q 1472 3097 1187 3025
Q 903 2953 641 2809
L 641 3341
Q 956 3463 1253 3523
Q 1550 3584 1831 3584
Q 2591 3584 2966 3190
Q 3341 2797 3341 1997
z
" transform="scale(0.015625)"/>
       <path id="DejaVuSans-4f" d="M 603 4863
L 1178 4863
L 1178 0
L 603 0
L 603 4863
z
" transform="scale(0.015625)"/>
      </defs>
      <use xlink:href="#DejaVuSans-35"/>
      <use xlink:href="#DejaVuSans-48" transform="translate(65 0)"/>
      <use xlink:href="#DejaVuSans-46" transform="translate(126.53125 0)"/>
      <use xlink:href="#DejaVuSans-44" transform="translate(181.515625 0)"/>
      <use xlink:href="#DejaVuSans-4f" transform="translate(242.796875 0)"/>
      <use xlink:href="#DejaVuSans-4f" transform="translate(270.578125 0)"/>
      <use xlink:href="#DejaVuSans-23" transform="translate(298.359375 0)"/>
      <use xlink:href="#DejaVuSans-14" transform="translate(398.359375 0)"/>
      <use xlink:href="#DejaVuSans-13" transform="translate(461.984375 0)"/>
     </g>
    </g>
   </g>
   <g id="line2d_24">
    <path d="M 329.893289 171.973598
L 450.378671 47.571291
" clip-path="url(#p3fcd752b65)" style="fill: none; stroke: #d8dcd9; stroke-linecap: square"/>
   </g>
   <g id="line2d_25">
    <path d="M 336.519985 228.836271
L 457.005367 148.069042
" clip-path="url(#p3fcd752b65)" style="fill: none; stroke: #d8dcd9; stroke-linecap: square"/>
   </g>
   <g id="line2d_26">
    <path d="M 343.146681 211.697299
L 463.632063 118.626092
" clip-path="url(#p3fcd752b65)" style="fill: none; stroke: #d8dcd9; stroke-linecap: square"/>
   </g>
   <g id="patch_6">
    <path d="M 302.784078 237.89952
L 302.784078 38.508043
" style="fill: none; stroke: #d8dcd9; stroke-width: 0.8; stroke-linejoin: miter; stroke-linecap: square"/>
   </g>
   <g id="patch_7">
    <path d="M 302.784078 237.89952
L 505.19952 237.89952
" style="fill: none; stroke: #d8dcd9; stroke-width: 0.8; stroke-linejoin: miter; stroke-linecap: square"/>
   </g>
   <g id="PathCollection_7">
    <g clip-path="url(#p3fcd752b65)">
     <use xlink:href="#m83fb942389" x="329.893289" y="171.973598" style="fill: #8d9390; stroke: #ffffff; stroke-width: 0.65"/>
    </g>
   </g>
   <g id="PathCollection_8">
    <g clip-path="url(#p3fcd752b65)">
     <use xlink:href="#m836678a409" x="450.378671" y="47.571291" style="fill: #1f6f5f; stroke: #ffffff; stroke-width: 0.65"/>
    </g>
   </g>
   <g id="PathCollection_9">
    <g clip-path="url(#p3fcd752b65)">
     <use xlink:href="#m5e26bcc45f" x="336.519985" y="228.836271" style="fill: #8d9390; stroke: #ffffff; stroke-width: 0.65"/>
    </g>
   </g>
   <g id="PathCollection_10">
    <g clip-path="url(#p3fcd752b65)">
     <use xlink:href="#m344a1830e0" x="457.005367" y="148.069042" style="fill: #1f6f5f; stroke: #ffffff; stroke-width: 0.65"/>
    </g>
   </g>
   <g id="PathCollection_11">
    <g clip-path="url(#p3fcd752b65)">
     <use xlink:href="#m3f42525e65" x="343.146681" y="211.697299" style="fill: #8d9390; stroke: #ffffff; stroke-width: 0.65"/>
    </g>
   </g>
   <g id="PathCollection_12">
    <g clip-path="url(#p3fcd752b65)">
     <use xlink:href="#m36612c6476" x="463.632063" y="118.626092" style="fill: #1f6f5f; stroke: #ffffff; stroke-width: 0.65"/>
    </g>
   </g>
   <g id="text_16">
    <!-- Fraction of all relevant gallery tiles found -->
    <g style="fill: #666c69" transform="translate(302.784078 30.508042) scale(0.083 -0.083)">
     <defs>
      <path id="DejaVuSans-29" d="M 628 4666
L 3309 4666
L 3309 4134
L 1259 4134
L 1259 2759
L 3109 2759
L 3109 2228
L 1259 2228
L 1259 0
L 628 0
L 628 4666
z
" transform="scale(0.015625)"/>
      <path id="DejaVuSans-52" d="M 1959 3097
Q 1497 3097 1228 2736
Q 959 2375 959 1747
Q 959 1119 1226 758
Q 1494 397 1959 397
Q 2419 397 2687 759
Q 2956 1122 2956 1747
Q 2956 2369 2687 2733
Q 2419 3097 1959 3097
z
M 1959 3584
Q 2709 3584 3137 3096
Q 3566 2609 3566 1747
Q 3566 888 3137 398
Q 2709 -91 1959 -91
Q 1206 -91 779 398
Q 353 888 353 1747
Q 353 2609 779 3096
Q 1206 3584 1959 3584
z
" transform="scale(0.015625)"/>
      <path id="DejaVuSans-51" d="M 3513 2113
L 3513 0
L 2938 0
L 2938 2094
Q 2938 2591 2744 2837
Q 2550 3084 2163 3084
Q 1697 3084 1428 2787
Q 1159 2491 1159 1978
L 1159 0
L 581 0
L 581 3500
L 1159 3500
L 1159 2956
Q 1366 3272 1645 3428
Q 1925 3584 2291 3584
Q 2894 3584 3203 3211
Q 3513 2838 3513 2113
z
" transform="scale(0.015625)"/>
      <path id="DejaVuSans-49" d="M 2375 4863
L 2375 4384
L 1825 4384
Q 1516 4384 1395 4259
Q 1275 4134 1275 3809
L 1275 3500
L 2222 3500
L 2222 3053
L 1275 3053
L 1275 0
L 697 0
L 697 3053
L 147 3053
L 147 3500
L 697 3500
L 697 3744
Q 697 4328 969 4595
Q 1241 4863 1831 4863
L 2375 4863
z
" transform="scale(0.015625)"/>
      <path id="DejaVuSans-59" d="M 191 3500
L 800 3500
L 1894 563
L 2988 3500
L 3597 3500
L 2284 0
L 1503 0
L 191 3500
z
" transform="scale(0.015625)"/>
      <path id="DejaVuSans-5c" d="M 2059 -325
Q 1816 -950 1584 -1140
Q 1353 -1331 966 -1331
L 506 -1331
L 506 -850
L 844 -850
Q 1081 -850 1212 -737
Q 1344 -625 1503 -206
L 1606 56
L 191 3500
L 800 3500
L 1894 763
L 2988 3500
L 3597 3500
L 2059 -325
z
" transform="scale(0.015625)"/>
      <path id="DejaVuSans-58" d="M 544 1381
L 544 3500
L 1119 3500
L 1119 1403
Q 1119 906 1312 657
Q 1506 409 1894 409
Q 2359 409 2629 706
Q 2900 1003 2900 1516
L 2900 3500
L 3475 3500
L 3475 0
L 2900 0
L 2900 538
Q 2691 219 2414 64
Q 2138 -91 1772 -91
Q 1169 -91 856 284
Q 544 659 544 1381
z
M 1991 3584
L 1991 3584
z
" transform="scale(0.015625)"/>
      <path id="DejaVuSans-47" d="M 2906 2969
L 2906 4863
L 3481 4863
L 3481 0
L 2906 0
L 2906 525
Q 2725 213 2448 61
Q 2172 -91 1784 -91
Q 1150 -91 751 415
Q 353 922 353 1747
Q 353 2572 751 3078
Q 1150 3584 1784 3584
Q 2172 3584 2448 3432
Q 2725 3281 2906 2969
z
M 947 1747
Q 947 1113 1208 752
Q 1469 391 1925 391
Q 2381 391 2643 752
Q 2906 1113 2906 1747
Q 2906 2381 2643 2742
Q 2381 3103 1925 3103
Q 1469 3103 1208 2742
Q 947 2381 947 1747
z
" transform="scale(0.015625)"/>
     </defs>
     <use xlink:href="#DejaVuSans-29"/>
     <use xlink:href="#DejaVuSans-55" transform="translate(50.234375 0)"/>
     <use xlink:href="#DejaVuSans-44" transform="translate(91.34375 0)"/>
     <use xlink:href="#DejaVuSans-46" transform="translate(152.625 0)"/>
     <use xlink:href="#DejaVuSans-57" transform="translate(207.609375 0)"/>
     <use xlink:href="#DejaVuSans-4c" transform="translate(246.8125 0)"/>
     <use xlink:href="#DejaVuSans-52" transform="translate(274.59375 0)"/>
     <use xlink:href="#DejaVuSans-51" transform="translate(335.78125 0)"/>
     <use xlink:href="#DejaVuSans-3" transform="translate(399.15625 0)"/>
     <use xlink:href="#DejaVuSans-52" transform="translate(430.9375 0)"/>
     <use xlink:href="#DejaVuSans-49" transform="translate(492.125 0)"/>
     <use xlink:href="#DejaVuSans-3" transform="translate(527.328125 0)"/>
     <use xlink:href="#DejaVuSans-44" transform="translate(559.109375 0)"/>
     <use xlink:href="#DejaVuSans-4f" transform="translate(620.390625 0)"/>
     <use xlink:href="#DejaVuSans-4f" transform="translate(648.171875 0)"/>
     <use xlink:href="#DejaVuSans-3" transform="translate(675.953125 0)"/>
     <use xlink:href="#DejaVuSans-55" transform="translate(707.734375 0)"/>
     <use xlink:href="#DejaVuSans-48" transform="translate(746.640625 0)"/>
     <use xlink:href="#DejaVuSans-4f" transform="translate(808.171875 0)"/>
     <use xlink:href="#DejaVuSans-48" transform="translate(835.953125 0)"/>
     <use xlink:href="#DejaVuSans-59" transform="translate(897.484375 0)"/>
     <use xlink:href="#DejaVuSans-44" transform="translate(956.671875 0)"/>
     <use xlink:href="#DejaVuSans-51" transform="translate(1017.953125 0)"/>
     <use xlink:href="#DejaVuSans-57" transform="translate(1081.328125 0)"/>
     <use xlink:href="#DejaVuSans-3" transform="translate(1120.53125 0)"/>
     <use xlink:href="#DejaVuSans-4a" transform="translate(1152.3125 0)"/>
     <use xlink:href="#DejaVuSans-44" transform="translate(1215.796875 0)"/>
     <use xlink:href="#DejaVuSans-4f" transform="translate(1277.078125 0)"/>
     <use xlink:href="#DejaVuSans-4f" transform="translate(1304.859375 0)"/>
     <use xlink:href="#DejaVuSans-48" transform="translate(1332.640625 0)"/>
     <use xlink:href="#DejaVuSans-55" transform="translate(1394.171875 0)"/>
     <use xlink:href="#DejaVuSans-5c" transform="translate(1435.28125 0)"/>
     <use xlink:href="#DejaVuSans-3" transform="translate(1494.46875 0)"/>
     <use xlink:href="#DejaVuSans-57" transform="translate(1526.25 0)"/>
     <use xlink:href="#DejaVuSans-4c" transform="translate(1565.453125 0)"/>
     <use xlink:href="#DejaVuSans-4f" transform="translate(1593.234375 0)"/>
     <use xlink:href="#DejaVuSans-48" transform="translate(1621.015625 0)"/>
     <use xlink:href="#DejaVuSans-56" transform="translate(1682.546875 0)"/>
     <use xlink:href="#DejaVuSans-3" transform="translate(1734.640625 0)"/>
     <use xlink:href="#DejaVuSans-49" transform="translate(1766.421875 0)"/>
     <use xlink:href="#DejaVuSans-52" transform="translate(1801.625 0)"/>
     <use xlink:href="#DejaVuSans-58" transform="translate(1862.8125 0)"/>
     <use xlink:href="#DejaVuSans-51" transform="translate(1926.1875 0)"/>
     <use xlink:href="#DejaVuSans-47" transform="translate(1989.5625 0)"/>
    </g>
   </g>
  </g>
  <g id="text_17">
   <!-- RGB + NIR raises macro mAP@10 in all three seeds -->
   <g style="fill: #171717" transform="translate(24.35976 15.558281) scale(0.11 -0.11)">
    <defs>
     <path id="DejaVuSans-Bold-35" d="M 2297 2597
Q 2675 2597 2839 2737
Q 3003 2878 3003 3200
Q 3003 3519 2839 3656
Q 2675 3794 2297 3794
L 1791 3794
L 1791 2597
L 2297 2597
z
M 1791 1766
L 1791 0
L 588 0
L 588 4666
L 2425 4666
Q 3347 4666 3776 4356
Q 4206 4047 4206 3378
Q 4206 2916 3982 2619
Q 3759 2322 3309 2181
Q 3556 2125 3751 1926
Q 3947 1728 4147 1325
L 4800 0
L 3519 0
L 2950 1159
Q 2778 1509 2601 1637
Q 2425 1766 2131 1766
L 1791 1766
z
" transform="scale(0.015625)"/>
     <path id="DejaVuSans-Bold-2a" d="M 4781 347
Q 4331 128 3847 18
Q 3363 -91 2847 -91
Q 1681 -91 1000 561
Q 319 1213 319 2328
Q 319 3456 1012 4103
Q 1706 4750 2913 4750
Q 3378 4750 3804 4662
Q 4231 4575 4609 4403
L 4609 3438
Q 4219 3659 3833 3768
Q 3447 3878 3059 3878
Q 2341 3878 1952 3476
Q 1563 3075 1563 2328
Q 1563 1588 1938 1184
Q 2313 781 3003 781
Q 3191 781 3352 804
Q 3513 828 3641 878
L 3641 1784
L 2906 1784
L 2906 2591
L 4781 2591
L 4781 347
z
" transform="scale(0.015625)"/>
     <path id="DejaVuSans-Bold-25" d="M 2456 2859
Q 2741 2859 2887 2984
Q 3034 3109 3034 3353
Q 3034 3594 2887 3720
Q 2741 3847 2456 3847
L 1791 3847
L 1791 2859
L 2456 2859
z
M 2497 819
Q 2859 819 3042 972
Q 3225 1125 3225 1434
Q 3225 1738 3044 1889
Q 2863 2041 2497 2041
L 1791 2041
L 1791 819
L 2497 819
z
M 3616 2497
Q 4003 2384 4215 2081
Q 4428 1778 4428 1338
Q 4428 663 3972 331
Q 3516 0 2584 0
L 588 0
L 588 4666
L 2394 4666
Q 3366 4666 3802 4372
Q 4238 4078 4238 3431
Q 4238 3091 4078 2852
Q 3919 2613 3616 2497
z
" transform="scale(0.015625)"/>
     <path id="DejaVuSans-Bold-3" transform="scale(0.015625)"/>
     <path id="DejaVuSans-Bold-e" d="M 3053 4013
L 3053 2375
L 4684 2375
L 4684 1638
L 3053 1638
L 3053 0
L 2309 0
L 2309 1638
L 678 1638
L 678 2375
L 2309 2375
L 2309 4013
L 3053 4013
z
" transform="scale(0.015625)"/>
     <path id="DejaVuSans-Bold-31" d="M 588 4666
L 1931 4666
L 3628 1466
L 3628 4666
L 4769 4666
L 4769 0
L 3425 0
L 1728 3200
L 1728 0
L 588 0
L 588 4666
z
" transform="scale(0.015625)"/>
     <path id="DejaVuSans-Bold-2c" d="M 588 4666
L 1791 4666
L 1791 0
L 588 0
L 588 4666
z
" transform="scale(0.015625)"/>
     <path id="DejaVuSans-Bold-55" d="M 3138 2547
Q 2991 2616 2845 2648
Q 2700 2681 2553 2681
Q 2122 2681 1889 2404
Q 1656 2128 1656 1613
L 1656 0
L 538 0
L 538 3500
L 1656 3500
L 1656 2925
Q 1872 3269 2151 3426
Q 2431 3584 2822 3584
Q 2878 3584 2943 3579
Q 3009 3575 3134 3559
L 3138 2547
z
" transform="scale(0.015625)"/>
     <path id="DejaVuSans-Bold-44" d="M 2106 1575
Q 1756 1575 1579 1456
Q 1403 1338 1403 1106
Q 1403 894 1545 773
Q 1688 653 1941 653
Q 2256 653 2472 879
Q 2688 1106 2688 1447
L 2688 1575
L 2106 1575
z
M 3816 1997
L 3816 0
L 2688 0
L 2688 519
Q 2463 200 2181 54
Q 1900 -91 1497 -91
Q 953 -91 614 226
Q 275 544 275 1050
Q 275 1666 698 1953
Q 1122 2241 2028 2241
L 2688 2241
L 2688 2328
Q 2688 2594 2478 2717
Q 2269 2841 1825 2841
Q 1466 2841 1156 2769
Q 847 2697 581 2553
L 581 3406
Q 941 3494 1303 3539
Q 1666 3584 2028 3584
Q 2975 3584 3395 3211
Q 3816 2838 3816 1997
z
" transform="scale(0.015625)"/>
     <path id="DejaVuSans-Bold-4c" d="M 538 3500
L 1656 3500
L 1656 0
L 538 0
L 538 3500
z
M 538 4863
L 1656 4863
L 1656 3950
L 538 3950
L 538 4863
z
" transform="scale(0.015625)"/>
     <path id="DejaVuSans-Bold-56" d="M 3272 3391
L 3272 2541
Q 2913 2691 2578 2766
Q 2244 2841 1947 2841
Q 1628 2841 1473 2761
Q 1319 2681 1319 2516
Q 1319 2381 1436 2309
Q 1553 2238 1856 2203
L 2053 2175
Q 2913 2066 3209 1816
Q 3506 1566 3506 1031
Q 3506 472 3093 190
Q 2681 -91 1863 -91
Q 1516 -91 1145 -36
Q 775 19 384 128
L 384 978
Q 719 816 1070 734
Q 1422 653 1784 653
Q 2113 653 2278 743
Q 2444 834 2444 1013
Q 2444 1163 2330 1236
Q 2216 1309 1875 1350
L 1678 1375
Q 931 1469 631 1722
Q 331 1975 331 2491
Q 331 3047 712 3315
Q 1094 3584 1881 3584
Q 2191 3584 2531 3537
Q 2872 3491 3272 3391
z
" transform="scale(0.015625)"/>
     <path id="DejaVuSans-Bold-48" d="M 4031 1759
L 4031 1441
L 1416 1441
Q 1456 1047 1700 850
Q 1944 653 2381 653
Q 2734 653 3104 758
Q 3475 863 3866 1075
L 3866 213
Q 3469 63 3072 -14
Q 2675 -91 2278 -91
Q 1328 -91 801 392
Q 275 875 275 1747
Q 275 2603 792 3093
Q 1309 3584 2216 3584
Q 3041 3584 3536 3087
Q 4031 2591 4031 1759
z
M 2881 2131
Q 2881 2450 2695 2645
Q 2509 2841 2209 2841
Q 1884 2841 1681 2658
Q 1478 2475 1428 2131
L 2881 2131
z
" transform="scale(0.015625)"/>
     <path id="DejaVuSans-Bold-50" d="M 3781 2919
Q 3994 3244 4286 3414
Q 4578 3584 4928 3584
Q 5531 3584 5847 3212
Q 6163 2841 6163 2131
L 6163 0
L 5038 0
L 5038 1825
Q 5041 1866 5042 1909
Q 5044 1953 5044 2034
Q 5044 2406 4934 2573
Q 4825 2741 4581 2741
Q 4263 2741 4089 2478
Q 3916 2216 3909 1719
L 3909 0
L 2784 0
L 2784 1825
Q 2784 2406 2684 2573
Q 2584 2741 2328 2741
Q 2006 2741 1831 2477
Q 1656 2213 1656 1722
L 1656 0
L 531 0
L 531 3500
L 1656 3500
L 1656 2988
Q 1863 3284 2130 3434
Q 2397 3584 2719 3584
Q 3081 3584 3359 3409
Q 3638 3234 3781 2919
z
" transform="scale(0.015625)"/>
     <path id="DejaVuSans-Bold-46" d="M 3366 3391
L 3366 2478
Q 3138 2634 2908 2709
Q 2678 2784 2431 2784
Q 1963 2784 1702 2511
Q 1441 2238 1441 1747
Q 1441 1256 1702 982
Q 1963 709 2431 709
Q 2694 709 2930 787
Q 3166 866 3366 1019
L 3366 103
Q 3103 6 2833 -42
Q 2563 -91 2291 -91
Q 1344 -91 809 395
Q 275 881 275 1747
Q 275 2613 809 3098
Q 1344 3584 2291 3584
Q 2566 3584 2833 3536
Q 3100 3488 3366 3391
z
" transform="scale(0.015625)"/>
     <path id="DejaVuSans-Bold-52" d="M 2203 2784
Q 1831 2784 1636 2517
Q 1441 2250 1441 1747
Q 1441 1244 1636 976
Q 1831 709 2203 709
Q 2569 709 2762 976
Q 2956 1244 2956 1747
Q 2956 2250 2762 2517
Q 2569 2784 2203 2784
z
M 2203 3584
Q 3106 3584 3614 3096
Q 4122 2609 4122 1747
Q 4122 884 3614 396
Q 3106 -91 2203 -91
Q 1297 -91 786 396
Q 275 884 275 1747
Q 275 2609 786 3096
Q 1297 3584 2203 3584
z
" transform="scale(0.015625)"/>
     <path id="DejaVuSans-Bold-24" d="M 3419 850
L 1538 850
L 1241 0
L 31 0
L 1759 4666
L 3194 4666
L 4922 0
L 3713 0
L 3419 850
z
M 1838 1716
L 3116 1716
L 2478 3572
L 1838 1716
z
" transform="scale(0.015625)"/>
     <path id="DejaVuSans-Bold-33" d="M 588 4666
L 2584 4666
Q 3475 4666 3951 4270
Q 4428 3875 4428 3144
Q 4428 2409 3951 2014
Q 3475 1619 2584 1619
L 1791 1619
L 1791 0
L 588 0
L 588 4666
z
M 1791 3794
L 1791 2491
L 2456 2491
Q 2806 2491 2997 2661
Q 3188 2831 3188 3144
Q 3188 3456 2997 3625
Q 2806 3794 2456 3794
L 1791 3794
z
" transform="scale(0.015625)"/>
     <path id="DejaVuSans-Bold-23" d="M 2597 1684
Q 2597 1300 2761 1078
Q 2925 856 3206 856
Q 3484 856 3650 1079
Q 3816 1303 3816 1684
Q 3816 2063 3648 2283
Q 3481 2503 3200 2503
Q 2925 2503 2761 2283
Q 2597 2063 2597 1684
z
M 3878 744
Q 3784 522 3576 398
Q 3369 275 3091 275
Q 2553 275 2217 664
Q 1881 1053 1881 1678
Q 1881 2303 2218 2693
Q 2556 3084 3091 3084
Q 3369 3084 3576 2959
Q 3784 2834 3878 2613
L 3878 3022
L 4531 3022
L 4531 856
Q 4919 916 5141 1230
Q 5363 1544 5363 2034
Q 5363 2347 5272 2620
Q 5181 2894 4997 3122
Q 4700 3503 4254 3709
Q 3809 3916 3291 3916
Q 2928 3916 2597 3820
Q 2266 3725 1984 3541
Q 1522 3234 1264 2748
Q 1006 2263 1006 1697
Q 1006 1231 1173 823
Q 1341 416 1656 103
Q 1969 -203 2373 -364
Q 2778 -525 3238 -525
Q 3631 -525 4025 -378
Q 4419 -231 4697 19
L 5031 -488
Q 4641 -791 4180 -952
Q 3719 -1113 3244 -1113
Q 2666 -1113 2153 -908
Q 1641 -703 1241 -313
Q 841 78 631 592
Q 422 1106 422 1697
Q 422 2266 634 2781
Q 847 3297 1241 3688
Q 1634 4075 2157 4287
Q 2681 4500 3244 4500
Q 3944 4500 4516 4233
Q 5088 3966 5472 3463
Q 5706 3156 5826 2798
Q 5947 2441 5947 2047
Q 5947 1200 5437 731
Q 4928 263 4000 263
L 3878 263
L 3878 744
z
" transform="scale(0.015625)"/>
     <path id="DejaVuSans-Bold-14" d="M 750 831
L 1813 831
L 1813 3847
L 722 3622
L 722 4441
L 1806 4666
L 2950 4666
L 2950 831
L 4013 831
L 4013 0
L 750 0
L 750 831
z
" transform="scale(0.015625)"/>
     <path id="DejaVuSans-Bold-13" d="M 2944 2338
Q 2944 3213 2780 3570
Q 2616 3928 2228 3928
Q 1841 3928 1675 3570
Q 1509 3213 1509 2338
Q 1509 1453 1675 1090
Q 1841 728 2228 728
Q 2613 728 2778 1090
Q 2944 1453 2944 2338
z
M 4147 2328
Q 4147 1169 3647 539
Q 3147 -91 2228 -91
Q 1306 -91 806 539
Q 306 1169 306 2328
Q 306 3491 806 4120
Q 1306 4750 2228 4750
Q 3147 4750 3647 4120
Q 4147 3491 4147 2328
z
" transform="scale(0.015625)"/>
     <path id="DejaVuSans-Bold-51" d="M 4056 2131
L 4056 0
L 2931 0
L 2931 347
L 2931 1631
Q 2931 2084 2911 2256
Q 2891 2428 2841 2509
Q 2775 2619 2662 2680
Q 2550 2741 2406 2741
Q 2056 2741 1856 2470
Q 1656 2200 1656 1722
L 1656 0
L 538 0
L 538 3500
L 1656 3500
L 1656 2988
Q 1909 3294 2193 3439
Q 2478 3584 2822 3584
Q 3428 3584 3742 3212
Q 4056 2841 4056 2131
z
" transform="scale(0.015625)"/>
     <path id="DejaVuSans-Bold-4f" d="M 538 4863
L 1656 4863
L 1656 0
L 538 0
L 538 4863
z
" transform="scale(0.015625)"/>
     <path id="DejaVuSans-Bold-57" d="M 1759 4494
L 1759 3500
L 2913 3500
L 2913 2700
L 1759 2700
L 1759 1216
Q 1759 972 1856 886
Q 1953 800 2241 800
L 2816 800
L 2816 0
L 1856 0
Q 1194 0 917 276
Q 641 553 641 1216
L 641 2700
L 84 2700
L 84 3500
L 641 3500
L 641 4494
L 1759 4494
z
" transform="scale(0.015625)"/>
     <path id="DejaVuSans-Bold-4b" d="M 4056 2131
L 4056 0
L 2931 0
L 2931 347
L 2931 1625
Q 2931 2084 2911 2256
Q 2891 2428 2841 2509
Q 2775 2619 2662 2680
Q 2550 2741 2406 2741
Q 2056 2741 1856 2470
Q 1656 2200 1656 1722
L 1656 0
L 538 0
L 538 4863
L 1656 4863
L 1656 2988
Q 1909 3294 2193 3439
Q 2478 3584 2822 3584
Q 3428 3584 3742 3212
Q 4056 2841 4056 2131
z
" transform="scale(0.015625)"/>
     <path id="DejaVuSans-Bold-47" d="M 2919 2988
L 2919 4863
L 4044 4863
L 4044 0
L 2919 0
L 2919 506
Q 2688 197 2409 53
Q 2131 -91 1766 -91
Q 1119 -91 703 423
Q 288 938 288 1747
Q 288 2556 703 3070
Q 1119 3584 1766 3584
Q 2128 3584 2408 3439
Q 2688 3294 2919 2988
z
M 2181 722
Q 2541 722 2730 984
Q 2919 1247 2919 1747
Q 2919 2247 2730 2509
Q 2541 2772 2181 2772
Q 1825 2772 1636 2509
Q 1447 2247 1447 1747
Q 1447 1247 1636 984
Q 1825 722 2181 722
z
" transform="scale(0.015625)"/>
    </defs>
    <use xlink:href="#DejaVuSans-Bold-35"/>
    <use xlink:href="#DejaVuSans-Bold-2a" transform="translate(77 0)"/>
    <use xlink:href="#DejaVuSans-Bold-25" transform="translate(159.078125 0)"/>
    <use xlink:href="#DejaVuSans-Bold-3" transform="translate(235.296875 0)"/>
    <use xlink:href="#DejaVuSans-Bold-e" transform="translate(270.109375 0)"/>
    <use xlink:href="#DejaVuSans-Bold-3" transform="translate(353.90625 0)"/>
    <use xlink:href="#DejaVuSans-Bold-31" transform="translate(388.71875 0)"/>
    <use xlink:href="#DejaVuSans-Bold-2c" transform="translate(472.40625 0)"/>
    <use xlink:href="#DejaVuSans-Bold-35" transform="translate(509.609375 0)"/>
    <use xlink:href="#DejaVuSans-Bold-3" transform="translate(586.609375 0)"/>
    <use xlink:href="#DejaVuSans-Bold-55" transform="translate(621.421875 0)"/>
    <use xlink:href="#DejaVuSans-Bold-44" transform="translate(670.734375 0)"/>
    <use xlink:href="#DejaVuSans-Bold-4c" transform="translate(738.21875 0)"/>
    <use xlink:href="#DejaVuSans-Bold-56" transform="translate(772.5 0)"/>
    <use xlink:href="#DejaVuSans-Bold-48" transform="translate(832.015625 0)"/>
    <use xlink:href="#DejaVuSans-Bold-56" transform="translate(899.84375 0)"/>
    <use xlink:href="#DejaVuSans-Bold-3" transform="translate(959.359375 0)"/>
    <use xlink:href="#DejaVuSans-Bold-50" transform="translate(994.171875 0)"/>
    <use xlink:href="#DejaVuSans-Bold-44" transform="translate(1098.375 0)"/>
    <use xlink:href="#DejaVuSans-Bold-46" transform="translate(1165.859375 0)"/>
    <use xlink:href="#DejaVuSans-Bold-55" transform="translate(1225.140625 0)"/>
    <use xlink:href="#DejaVuSans-Bold-52" transform="translate(1274.453125 0)"/>
    <use xlink:href="#DejaVuSans-Bold-3" transform="translate(1343.15625 0)"/>
    <use xlink:href="#DejaVuSans-Bold-50" transform="translate(1377.96875 0)"/>
    <use xlink:href="#DejaVuSans-Bold-24" transform="translate(1482.171875 0)"/>
    <use xlink:href="#DejaVuSans-Bold-33" transform="translate(1559.5625 0)"/>
    <use xlink:href="#DejaVuSans-Bold-23" transform="translate(1632.859375 0)"/>
    <use xlink:href="#DejaVuSans-Bold-14" transform="translate(1732.859375 0)"/>
    <use xlink:href="#DejaVuSans-Bold-13" transform="translate(1802.4375 0)"/>
    <use xlink:href="#DejaVuSans-Bold-3" transform="translate(1872.015625 0)"/>
    <use xlink:href="#DejaVuSans-Bold-4c" transform="translate(1906.828125 0)"/>
    <use xlink:href="#DejaVuSans-Bold-51" transform="translate(1941.109375 0)"/>
    <use xlink:href="#DejaVuSans-Bold-3" transform="translate(2012.296875 0)"/>
    <use xlink:href="#DejaVuSans-Bold-44" transform="translate(2047.109375 0)"/>
    <use xlink:href="#DejaVuSans-Bold-4f" transform="translate(2114.59375 0)"/>
    <use xlink:href="#DejaVuSans-Bold-4f" transform="translate(2148.875 0)"/>
    <use xlink:href="#DejaVuSans-Bold-3" transform="translate(2183.15625 0)"/>
    <use xlink:href="#DejaVuSans-Bold-57" transform="translate(2217.96875 0)"/>
    <use xlink:href="#DejaVuSans-Bold-4b" transform="translate(2265.765625 0)"/>
    <use xlink:href="#DejaVuSans-Bold-55" transform="translate(2336.953125 0)"/>
    <use xlink:href="#DejaVuSans-Bold-48" transform="translate(2386.265625 0)"/>
    <use xlink:href="#DejaVuSans-Bold-48" transform="translate(2454.09375 0)"/>
    <use xlink:href="#DejaVuSans-Bold-3" transform="translate(2521.921875 0)"/>
    <use xlink:href="#DejaVuSans-Bold-56" transform="translate(2556.734375 0)"/>
    <use xlink:href="#DejaVuSans-Bold-48" transform="translate(2616.25 0)"/>
    <use xlink:href="#DejaVuSans-Bold-48" transform="translate(2684.078125 0)"/>
    <use xlink:href="#DejaVuSans-Bold-47" transform="translate(2751.90625 0)"/>
    <use xlink:href="#DejaVuSans-Bold-56" transform="translate(2823.484375 0)"/>
   </g>
  </g>
  <g id="text_18">
   <!-- Exact cosine Top-10; official train gallery and field-disjoint validation queries. Points are individual seeds; no seed-level confidence interval is implied. -->
   <g style="fill: #666c69" transform="translate(24.35976 282.40776) scale(0.074 -0.074)">
    <defs>
     <path id="DejaVuSans-28" d="M 628 4666
L 3578 4666
L 3578 4134
L 1259 4134
L 1259 2753
L 3481 2753
L 3481 2222
L 1259 2222
L 1259 531
L 3634 531
L 3634 0
L 628 0
L 628 4666
z
" transform="scale(0.015625)"/>
     <path id="DejaVuSans-5b" d="M 3513 3500
L 2247 1797
L 3578 0
L 2900 0
L 1881 1375
L 863 0
L 184 0
L 1544 1831
L 300 3500
L 978 3500
L 1906 2253
L 2834 3500
L 3513 3500
z
" transform="scale(0.015625)"/>
     <path id="DejaVuSans-37" d="M -19 4666
L 3928 4666
L 3928 4134
L 2272 4134
L 2272 0
L 1638 0
L 1638 4134
L -19 4134
L -19 4666
z
" transform="scale(0.015625)"/>
     <path id="DejaVuSans-53" d="M 1159 525
L 1159 -1331
L 581 -1331
L 581 3500
L 1159 3500
L 1159 2969
Q 1341 3281 1617 3432
Q 1894 3584 2278 3584
Q 2916 3584 3314 3078
Q 3713 2572 3713 1747
Q 3713 922 3314 415
Q 2916 -91 2278 -91
Q 1894 -91 1617 61
Q 1341 213 1159 525
z
M 3116 1747
Q 3116 2381 2855 2742
Q 2594 3103 2138 3103
Q 1681 3103 1420 2742
Q 1159 2381 1159 1747
Q 1159 1113 1420 752
Q 1681 391 2138 391
Q 2594 391 2855 752
Q 3116 1113 3116 1747
z
" transform="scale(0.015625)"/>
     <path id="DejaVuSans-10" d="M 313 2009
L 1997 2009
L 1997 1497
L 313 1497
L 313 2009
z
" transform="scale(0.015625)"/>
     <path id="DejaVuSans-1e" d="M 750 3309
L 1409 3309
L 1409 2516
L 750 2516
L 750 3309
z
M 750 794
L 1409 794
L 1409 256
L 897 -744
L 494 -744
L 750 256
L 750 794
z
" transform="scale(0.015625)"/>
     <path id="DejaVuSans-13b1" d="M 2375 4863
L 2375 4384
L 1825 4384
Q 1516 4384 1394 4259
Q 1275 4134 1275 3809
L 1275 3500
L 2853 3500
L 2853 3744
Q 2853 4328 3125 4594
Q 3213 4681 3334 4741
Q 3578 4863 3988 4863
L 4531 4863
L 4531 4384
L 3981 4384
Q 3672 4384 3551 4259
Q 3431 4134 3431 3809
L 3431 3500
L 5588 3500
L 5588 0
L 5009 0
L 5009 3053
L 3431 3053
L 3431 0
L 2853 0
L 2853 3053
L 1275 3053
L 1275 0
L 697 0
L 697 3053
L 147 3053
L 147 3500
L 697 3500
L 697 3744
Q 697 4328 969 4595
Q 1241 4863 1831 4863
L 2375 4863
z
M 5009 4856
L 5588 4856
L 5588 4128
L 5009 4128
L 5009 4856
z
" transform="scale(0.015625)"/>
     <path id="DejaVuSans-13af" d="M 3431 3500
L 3431 0
L 2853 0
L 2853 3053
L 1275 3053
L 1275 0
L 697 0
L 697 3053
L 147 3053
L 147 3500
L 697 3500
L 697 3744
Q 697 4316 967 4589
Q 1238 4863 1797 4863
L 2375 4863
L 2375 4384
L 1825 4384
Q 1516 4384 1395 4259
Q 1275 4134 1275 3809
L 1275 3500
L 3431 3500
z
M 2853 4856
L 3431 4856
L 3431 4128
L 2853 4128
L 2853 4856
z
" transform="scale(0.015625)"/>
     <path id="DejaVuSans-4d" d="M 603 3500
L 1178 3500
L 1178 -63
Q 1178 -731 923 -1031
Q 669 -1331 103 -1331
L -116 -1331
L -116 -844
L 38 -844
Q 366 -844 484 -692
Q 603 -541 603 -63
L 603 3500
z
M 603 4863
L 1178 4863
L 1178 4134
L 603 4134
L 603 4863
z
" transform="scale(0.015625)"/>
     <path id="DejaVuSans-54" d="M 947 1747
Q 947 1113 1208 752
Q 1469 391 1925 391
Q 2381 391 2643 752
Q 2906 1113 2906 1747
Q 2906 2381 2643 2742
Q 2381 3103 1925 3103
Q 1469 3103 1208 2742
Q 947 2381 947 1747
z
M 2906 525
Q 2725 213 2448 61
Q 2172 -91 1784 -91
Q 1150 -91 751 415
Q 353 922 353 1747
Q 353 2572 751 3078
Q 1150 3584 1784 3584
Q 2172 3584 2448 3432
Q 2725 3281 2906 2969
L 2906 3500
L 3481 3500
L 3481 -1331
L 2906 -1331
L 2906 525
z
" transform="scale(0.015625)"/>
    </defs>
    <use xlink:href="#DejaVuSans-28"/>
    <use xlink:href="#DejaVuSans-5b" transform="translate(63.1875 0)"/>
    <use xlink:href="#DejaVuSans-44" transform="translate(122.375 0)"/>
    <use xlink:href="#DejaVuSans-46" transform="translate(183.65625 0)"/>
    <use xlink:href="#DejaVuSans-57" transform="translate(238.640625 0)"/>
    <use xlink:href="#DejaVuSans-3" transform="translate(277.84375 0)"/>
    <use xlink:href="#DejaVuSans-46" transform="translate(309.625 0)"/>
    <use xlink:href="#DejaVuSans-52" transform="translate(364.609375 0)"/>
    <use xlink:href="#DejaVuSans-56" transform="translate(425.796875 0)"/>
    <use xlink:href="#DejaVuSans-4c" transform="translate(477.890625 0)"/>
    <use xlink:href="#DejaVuSans-51" transform="translate(505.671875 0)"/>
    <use xlink:href="#DejaVuSans-48" transform="translate(569.046875 0)"/>
    <use xlink:href="#DejaVuSans-3" transform="translate(630.578125 0)"/>
    <use xlink:href="#DejaVuSans-37" transform="translate(662.359375 0)"/>
    <use xlink:href="#DejaVuSans-52" transform="translate(706.453125 0)"/>
    <use xlink:href="#DejaVuSans-53" transform="translate(767.640625 0)"/>
    <use xlink:href="#DejaVuSans-10" transform="translate(831.125 0)"/>
    <use xlink:href="#DejaVuSans-14" transform="translate(867.203125 0)"/>
    <use xlink:href="#DejaVuSans-13" transform="translate(930.828125 0)"/>
    <use xlink:href="#DejaVuSans-1e" transform="translate(994.453125 0)"/>
    <use xlink:href="#DejaVuSans-3" transform="translate(1028.140625 0)"/>
    <use xlink:href="#DejaVuSans-52" transform="translate(1059.921875 0)"/>
    <use xlink:href="#DejaVuSans-13b1" transform="translate(1121.109375 0)"/>
    <use xlink:href="#DejaVuSans-46" transform="translate(1217.796875 0)"/>
    <use xlink:href="#DejaVuSans-4c" transform="translate(1272.78125 0)"/>
    <use xlink:href="#DejaVuSans-44" transform="translate(1300.5625 0)"/>
    <use xlink:href="#DejaVuSans-4f" transform="translate(1361.84375 0)"/>
    <use xlink:href="#DejaVuSans-3" transform="translate(1389.625 0)"/>
    <use xlink:href="#DejaVuSans-57" transform="translate(1421.40625 0)"/>
    <use xlink:href="#DejaVuSans-55" transform="translate(1460.609375 0)"/>
    <use xlink:href="#DejaVuSans-44" transform="translate(1501.71875 0)"/>
    <use xlink:href="#DejaVuSans-4c" transform="translate(1563 0)"/>
    <use xlink:href="#DejaVuSans-51" transform="translate(1590.78125 0)"/>
    <use xlink:href="#DejaVuSans-3" transform="translate(1654.15625 0)"/>
    <use xlink:href="#DejaVuSans-4a" transform="translate(1685.9375 0)"/>
    <use xlink:href="#DejaVuSans-44" transform="translate(1749.421875 0)"/>
    <use xlink:href="#DejaVuSans-4f" transform="translate(1810.703125 0)"/>
    <use xlink:href="#DejaVuSans-4f" transform="translate(1838.484375 0)"/>
    <use xlink:href="#DejaVuSans-48" transform="translate(1866.265625 0)"/>
    <use xlink:href="#DejaVuSans-55" transform="translate(1927.796875 0)"/>
    <use xlink:href="#DejaVuSans-5c" transform="translate(1968.90625 0)"/>
    <use xlink:href="#DejaVuSans-3" transform="translate(2028.09375 0)"/>
    <use xlink:href="#DejaVuSans-44" transform="translate(2059.875 0)"/>
    <use xlink:href="#DejaVuSans-51" transform="translate(2121.15625 0)"/>
    <use xlink:href="#DejaVuSans-47" transform="translate(2184.53125 0)"/>
    <use xlink:href="#DejaVuSans-3" transform="translate(2248.015625 0)"/>
    <use xlink:href="#DejaVuSans-13af" transform="translate(2279.796875 0)"/>
    <use xlink:href="#DejaVuSans-48" transform="translate(2342.78125 0)"/>
    <use xlink:href="#DejaVuSans-4f" transform="translate(2404.3125 0)"/>
    <use xlink:href="#DejaVuSans-47" transform="translate(2432.09375 0)"/>
    <use xlink:href="#DejaVuSans-10" transform="translate(2495.578125 0)"/>
    <use xlink:href="#DejaVuSans-47" transform="translate(2531.65625 0)"/>
    <use xlink:href="#DejaVuSans-4c" transform="translate(2595.140625 0)"/>
    <use xlink:href="#DejaVuSans-56" transform="translate(2622.921875 0)"/>
    <use xlink:href="#DejaVuSans-4d" transform="translate(2675.015625 0)"/>
    <use xlink:href="#DejaVuSans-52" transform="translate(2702.796875 0)"/>
    <use xlink:href="#DejaVuSans-4c" transform="translate(2763.984375 0)"/>
    <use xlink:href="#DejaVuSans-51" transform="translate(2791.765625 0)"/>
    <use xlink:href="#DejaVuSans-57" transform="translate(2855.140625 0)"/>
    <use xlink:href="#DejaVuSans-3" transform="translate(2894.34375 0)"/>
    <use xlink:href="#DejaVuSans-59" transform="translate(2926.125 0)"/>
    <use xlink:href="#DejaVuSans-44" transform="translate(2985.3125 0)"/>
    <use xlink:href="#DejaVuSans-4f" transform="translate(3046.59375 0)"/>
    <use xlink:href="#DejaVuSans-4c" transform="translate(3074.375 0)"/>
    <use xlink:href="#DejaVuSans-47" transform="translate(3102.15625 0)"/>
    <use xlink:href="#DejaVuSans-44" transform="translate(3165.640625 0)"/>
    <use xlink:href="#DejaVuSans-57" transform="translate(3226.921875 0)"/>
    <use xlink:href="#DejaVuSans-4c" transform="translate(3266.125 0)"/>
    <use xlink:href="#DejaVuSans-52" transform="translate(3293.90625 0)"/>
    <use xlink:href="#DejaVuSans-51" transform="translate(3355.09375 0)"/>
    <use xlink:href="#DejaVuSans-3" transform="translate(3418.46875 0)"/>
    <use xlink:href="#DejaVuSans-54" transform="translate(3450.25 0)"/>
    <use xlink:href="#DejaVuSans-58" transform="translate(3513.734375 0)"/>
    <use xlink:href="#DejaVuSans-48" transform="translate(3577.109375 0)"/>
    <use xlink:href="#DejaVuSans-55" transform="translate(3638.640625 0)"/>
    <use xlink:href="#DejaVuSans-4c" transform="translate(3679.75 0)"/>
    <use xlink:href="#DejaVuSans-48" transform="translate(3707.53125 0)"/>
    <use xlink:href="#DejaVuSans-56" transform="translate(3769.0625 0)"/>
    <use xlink:href="#DejaVuSans-11" transform="translate(3821.15625 0)"/>
    <use xlink:href="#DejaVuSans-3" transform="translate(3852.9375 0)"/>
    <use xlink:href="#DejaVuSans-33" transform="translate(3884.71875 0)"/>
    <use xlink:href="#DejaVuSans-52" transform="translate(3941.453125 0)"/>
    <use xlink:href="#DejaVuSans-4c" transform="translate(4002.640625 0)"/>
    <use xlink:href="#DejaVuSans-51" transform="translate(4030.421875 0)"/>
    <use xlink:href="#DejaVuSans-57" transform="translate(4093.796875 0)"/>
    <use xlink:href="#DejaVuSans-56" transform="translate(4133 0)"/>
    <use xlink:href="#DejaVuSans-3" transform="translate(4185.09375 0)"/>
    <use xlink:href="#DejaVuSans-44" transform="translate(4216.875 0)"/>
    <use xlink:href="#DejaVuSans-55" transform="translate(4278.15625 0)"/>
    <use xlink:href="#DejaVuSans-48" transform="translate(4317.0625 0)"/>
    <use xlink:href="#DejaVuSans-3" transform="translate(4378.59375 0)"/>
    <use xlink:href="#DejaVuSans-4c" transform="translate(4410.375 0)"/>
    <use xlink:href="#DejaVuSans-51" transform="translate(4438.15625 0)"/>
    <use xlink:href="#DejaVuSans-47" transform="translate(4501.53125 0)"/>
    <use xlink:href="#DejaVuSans-4c" transform="translate(4565.015625 0)"/>
    <use xlink:href="#DejaVuSans-59" transform="translate(4592.796875 0)"/>
    <use xlink:href="#DejaVuSans-4c" transform="translate(4651.984375 0)"/>
    <use xlink:href="#DejaVuSans-47" transform="translate(4679.765625 0)"/>
    <use xlink:href="#DejaVuSans-58" transform="translate(4743.25 0)"/>
    <use xlink:href="#DejaVuSans-44" transform="translate(4806.625 0)"/>
    <use xlink:href="#DejaVuSans-4f" transform="translate(4867.90625 0)"/>
    <use xlink:href="#DejaVuSans-3" transform="translate(4895.6875 0)"/>
    <use xlink:href="#DejaVuSans-56" transform="translate(4927.46875 0)"/>
    <use xlink:href="#DejaVuSans-48" transform="translate(4979.5625 0)"/>
    <use xlink:href="#DejaVuSans-48" transform="translate(5041.09375 0)"/>
    <use xlink:href="#DejaVuSans-47" transform="translate(5102.625 0)"/>
    <use xlink:href="#DejaVuSans-56" transform="translate(5166.109375 0)"/>
    <use xlink:href="#DejaVuSans-1e" transform="translate(5218.203125 0)"/>
    <use xlink:href="#DejaVuSans-3" transform="translate(5251.890625 0)"/>
    <use xlink:href="#DejaVuSans-51" transform="translate(5283.671875 0)"/>
    <use xlink:href="#DejaVuSans-52" transform="translate(5347.046875 0)"/>
    <use xlink:href="#DejaVuSans-3" transform="translate(5408.234375 0)"/>
    <use xlink:href="#DejaVuSans-56" transform="translate(5440.015625 0)"/>
    <use xlink:href="#DejaVuSans-48" transform="translate(5492.109375 0)"/>
    <use xlink:href="#DejaVuSans-48" transform="translate(5553.640625 0)"/>
    <use xlink:href="#DejaVuSans-47" transform="translate(5615.171875 0)"/>
    <use xlink:href="#DejaVuSans-10" transform="translate(5678.65625 0)"/>
    <use xlink:href="#DejaVuSans-4f" transform="translate(5714.734375 0)"/>
    <use xlink:href="#DejaVuSans-48" transform="translate(5742.515625 0)"/>
    <use xlink:href="#DejaVuSans-59" transform="translate(5804.046875 0)"/>
    <use xlink:href="#DejaVuSans-48" transform="translate(5863.234375 0)"/>
    <use xlink:href="#DejaVuSans-4f" transform="translate(5924.765625 0)"/>
    <use xlink:href="#DejaVuSans-3" transform="translate(5952.546875 0)"/>
    <use xlink:href="#DejaVuSans-46" transform="translate(5984.328125 0)"/>
    <use xlink:href="#DejaVuSans-52" transform="translate(6039.3125 0)"/>
    <use xlink:href="#DejaVuSans-51" transform="translate(6100.5 0)"/>
    <use xlink:href="#DejaVuSans-13af" transform="translate(6163.875 0)"/>
    <use xlink:href="#DejaVuSans-47" transform="translate(6226.859375 0)"/>
    <use xlink:href="#DejaVuSans-48" transform="translate(6290.34375 0)"/>
    <use xlink:href="#DejaVuSans-51" transform="translate(6351.875 0)"/>
    <use xlink:href="#DejaVuSans-46" transform="translate(6415.25 0)"/>
    <use xlink:href="#DejaVuSans-48" transform="translate(6470.234375 0)"/>
    <use xlink:href="#DejaVuSans-3" transform="translate(6531.765625 0)"/>
    <use xlink:href="#DejaVuSans-4c" transform="translate(6563.546875 0)"/>
    <use xlink:href="#DejaVuSans-51" transform="translate(6591.328125 0)"/>
    <use xlink:href="#DejaVuSans-57" transform="translate(6654.703125 0)"/>
    <use xlink:href="#DejaVuSans-48" transform="translate(6693.90625 0)"/>
    <use xlink:href="#DejaVuSans-55" transform="translate(6755.4375 0)"/>
    <use xlink:href="#DejaVuSans-59" transform="translate(6796.546875 0)"/>
    <use xlink:href="#DejaVuSans-44" transform="translate(6855.734375 0)"/>
    <use xlink:href="#DejaVuSans-4f" transform="translate(6917.015625 0)"/>
    <use xlink:href="#DejaVuSans-3" transform="translate(6944.796875 0)"/>
    <use xlink:href="#DejaVuSans-4c" transform="translate(6976.578125 0)"/>
    <use xlink:href="#DejaVuSans-56" transform="translate(7004.359375 0)"/>
    <use xlink:href="#DejaVuSans-3" transform="translate(7056.453125 0)"/>
    <use xlink:href="#DejaVuSans-4c" transform="translate(7088.234375 0)"/>
    <use xlink:href="#DejaVuSans-50" transform="translate(7116.015625 0)"/>
    <use xlink:href="#DejaVuSans-53" transform="translate(7213.421875 0)"/>
    <use xlink:href="#DejaVuSans-4f" transform="translate(7276.90625 0)"/>
    <use xlink:href="#DejaVuSans-4c" transform="translate(7304.6875 0)"/>
    <use xlink:href="#DejaVuSans-48" transform="translate(7332.46875 0)"/>
    <use xlink:href="#DejaVuSans-47" transform="translate(7394 0)"/>
    <use xlink:href="#DejaVuSans-11" transform="translate(7457.484375 0)"/>
   </g>
  </g>
  <g id="legend_1">
   <g id="line2d_27">
    <defs>
     <path id="m47a8c5bd17" d="M 0 3
C 0.795609 3 1.55874 2.683901 2.12132 2.12132
C 2.683901 1.55874 3 0.795609 3 0
C 3 -0.795609 2.683901 -1.55874 2.12132 -2.12132
C 1.55874 -2.683901 0.795609 -3 0 -3
C -0.795609 -3 -1.55874 -2.683901 -2.12132 -2.12132
C -2.683901 -1.55874 -3 -0.795609 -3 0
C -3 0.795609 -2.683901 1.55874 -2.12132 2.12132
C -1.55874 2.683901 -0.795609 3 0 3
z
" style="stroke: #ffffff"/>
    </defs>
    <g>
     <use xlink:href="#m47a8c5bd17" x="113.61976" y="260.549885" style="fill: #8d9390; stroke: #ffffff"/>
    </g>
   </g>
   <g id="text_19">
    <!-- RGB -->
    <g transform="translate(125.21976 263.349885) scale(0.08 -0.08)">
     <use xlink:href="#DejaVuSans-35"/>
     <use xlink:href="#DejaVuSans-2a" transform="translate(69.484375 0)"/>
     <use xlink:href="#DejaVuSans-25" transform="translate(146.96875 0)"/>
    </g>
   </g>
   <g id="line2d_28">
    <defs>
     <path id="m483ee7c4d9" d="M 0 3
C 0.795609 3 1.55874 2.683901 2.12132 2.12132
C 2.683901 1.55874 3 0.795609 3 0
C 3 -0.795609 2.683901 -1.55874 2.12132 -2.12132
C 1.55874 -2.683901 0.795609 -3 0 -3
C -0.795609 -3 -1.55874 -2.683901 -2.12132 -2.12132
C -2.683901 -1.55874 -3 -0.795609 -3 0
C -3 0.795609 -2.683901 1.55874 -2.12132 2.12132
C -1.55874 2.683901 -0.795609 3 0 3
z
" style="stroke: #ffffff"/>
    </defs>
    <g>
     <use xlink:href="#m483ee7c4d9" x="161.66601" y="260.549885" style="fill: #1f6f5f; stroke: #ffffff"/>
    </g>
   </g>
   <g id="text_20">
    <!-- RGB + NIR -->
    <g transform="translate(173.26601 263.349885) scale(0.08 -0.08)">
     <use xlink:href="#DejaVuSans-35"/>
     <use xlink:href="#DejaVuSans-2a" transform="translate(69.484375 0)"/>
     <use xlink:href="#DejaVuSans-25" transform="translate(146.96875 0)"/>
     <use xlink:href="#DejaVuSans-3" transform="translate(215.578125 0)"/>
     <use xlink:href="#DejaVuSans-e" transform="translate(247.359375 0)"/>
     <use xlink:href="#DejaVuSans-3" transform="translate(331.15625 0)"/>
     <use xlink:href="#DejaVuSans-31" transform="translate(362.9375 0)"/>
     <use xlink:href="#DejaVuSans-2c" transform="translate(437.75 0)"/>
     <use xlink:href="#DejaVuSans-35" transform="translate(467.25 0)"/>
    </g>
   </g>
   <g id="line2d_29">
    <defs>
     <path id="me10c69f0cf" d="M 0 3
C 0.795609 3 1.55874 2.683901 2.12132 2.12132
C 2.683901 1.55874 3 0.795609 3 0
C 3 -0.795609 2.683901 -1.55874 2.12132 -2.12132
C 1.55874 -2.683901 0.795609 -3 0 -3
C -0.795609 -3 -1.55874 -2.683901 -2.12132 -2.12132
C -2.683901 -1.55874 -3 -0.795609 -3 0
C -3 0.795609 -2.683901 1.55874 -2.12132 2.12132
C -1.55874 2.683901 -0.795609 3 0 3
z
" style="stroke: #ffffff"/>
    </defs>
    <g>
     <use xlink:href="#me10c69f0cf" x="235.40476" y="260.549885" style="fill: #171717; stroke: #ffffff"/>
    </g>
   </g>
   <g id="text_21">
    <!-- Seed 17 -->
    <g transform="translate(247.00476 263.349885) scale(0.08 -0.08)">
     <defs>
      <path id="DejaVuSans-36" d="M 3425 4513
L 3425 3897
Q 3066 4069 2747 4153
Q 2428 4238 2131 4238
Q 1616 4238 1336 4038
Q 1056 3838 1056 3469
Q 1056 3159 1242 3001
Q 1428 2844 1947 2747
L 2328 2669
Q 3034 2534 3370 2195
Q 3706 1856 3706 1288
Q 3706 609 3251 259
Q 2797 -91 1919 -91
Q 1588 -91 1214 -16
Q 841 59 441 206
L 441 856
Q 825 641 1194 531
Q 1563 422 1919 422
Q 2459 422 2753 634
Q 3047 847 3047 1241
Q 3047 1584 2836 1778
Q 2625 1972 2144 2069
L 1759 2144
Q 1053 2284 737 2584
Q 422 2884 422 3419
Q 422 4038 858 4394
Q 1294 4750 2059 4750
Q 2388 4750 2728 4690
Q 3069 4631 3425 4513
z
" transform="scale(0.015625)"/>
     </defs>
     <use xlink:href="#DejaVuSans-36"/>
     <use xlink:href="#DejaVuSans-48" transform="translate(63.484375 0)"/>
     <use xlink:href="#DejaVuSans-48" transform="translate(125.015625 0)"/>
     <use xlink:href="#DejaVuSans-47" transform="translate(186.546875 0)"/>
     <use xlink:href="#DejaVuSans-3" transform="translate(250.03125 0)"/>
     <use xlink:href="#DejaVuSans-14" transform="translate(281.8125 0)"/>
     <use xlink:href="#DejaVuSans-1a" transform="translate(345.4375 0)"/>
    </g>
   </g>
   <g id="line2d_30">
    <defs>
     <path id="m309953b488" d="M -3 3
L 3 3
L 3 -3
L -3 -3
z
" style="stroke: #ffffff; stroke-linejoin: miter"/>
    </defs>
    <g>
     <use xlink:href="#m309953b488" x="298.92976" y="260.549885" style="fill: #171717; stroke: #ffffff; stroke-linejoin: miter"/>
    </g>
   </g>
   <g id="text_22">
    <!-- Seed 23 -->
    <g transform="translate(310.52976 263.349885) scale(0.08 -0.08)">
     <use xlink:href="#DejaVuSans-36"/>
     <use xlink:href="#DejaVuSans-48" transform="translate(63.484375 0)"/>
     <use xlink:href="#DejaVuSans-48" transform="translate(125.015625 0)"/>
     <use xlink:href="#DejaVuSans-47" transform="translate(186.546875 0)"/>
     <use xlink:href="#DejaVuSans-3" transform="translate(250.03125 0)"/>
     <use xlink:href="#DejaVuSans-15" transform="translate(281.8125 0)"/>
     <use xlink:href="#DejaVuSans-16" transform="translate(345.4375 0)"/>
    </g>
   </g>
   <g id="line2d_31">
    <defs>
     <path id="ma09a3a72e3" d="M 0 -3
L -3 3
L 3 3
z
" style="stroke: #ffffff; stroke-linejoin: miter"/>
    </defs>
    <g>
     <use xlink:href="#ma09a3a72e3" x="362.45476" y="260.549885" style="fill: #171717; stroke: #ffffff; stroke-linejoin: miter"/>
    </g>
   </g>
   <g id="text_23">
    <!-- Seed 42 -->
    <g transform="translate(374.05476 263.349885) scale(0.08 -0.08)">
     <defs>
      <path id="DejaVuSans-17" d="M 2419 4116
L 825 1625
L 2419 1625
L 2419 4116
z
M 2253 4666
L 3047 4666
L 3047 1625
L 3713 1625
L 3713 1100
L 3047 1100
L 3047 0
L 2419 0
L 2419 1100
L 313 1100
L 313 1709
L 2253 4666
z
" transform="scale(0.015625)"/>
     </defs>
     <use xlink:href="#DejaVuSans-36"/>
     <use xlink:href="#DejaVuSans-48" transform="translate(63.484375 0)"/>
     <use xlink:href="#DejaVuSans-48" transform="translate(125.015625 0)"/>
     <use xlink:href="#DejaVuSans-47" transform="translate(186.546875 0)"/>
     <use xlink:href="#DejaVuSans-3" transform="translate(250.03125 0)"/>
     <use xlink:href="#DejaVuSans-17" transform="translate(281.8125 0)"/>
     <use xlink:href="#DejaVuSans-15" transform="translate(345.4375 0)"/>
    </g>
   </g>
  </g>
 </g>
 <defs>
  <clipPath id="p935c71073e">
   <rect x="42.957813" y="38.508042" width="202.415442" height="199.391478"/>
  </clipPath>
  <clipPath id="p3fcd752b65">
   <rect x="302.784078" y="38.508042" width="202.415442" height="199.391478"/>
  </clipPath>
 </defs>
</svg>
